<?xml version="1.0" encoding="utf-8"?>
<!-- Generator: Adobe Illustrator 27.2.0, SVG Export Plug-In . SVG Version: 6.00 Build 0)  -->
<svg version="1.1" id="Layer_1" xmlns="http://www.w3.org/2000/svg" xmlns:xlink="http://www.w3.org/1999/xlink" x="0px" y="0px"
	 viewBox="0 0 576.3 446.04" style="enable-background:new 0 0 576.3 446.04;" xml:space="preserve">
<style type="text/css">
	.st0{fill:#684DA0;}
</style>
<g>
	<path class="st0" d="M301.59,199.9c0.02-2.92,0.05-5.85,0.08-8.77c-0.29-0.09-0.57-0.23-0.84-0.46c-0.66,0.86-1.92,1.33-3.12,0.79
		c-8.59-3.87-17.27-7.59-25.61-12c-0.17-0.09-0.31-0.19-0.44-0.3c-8.08-2.85-16.24-6.45-23.12-11.58c-0.53-0.18-1.05-0.38-1.57-0.59
		c-3.36-1.35-6.65-2.87-10-4.26c-6.39-2.65-12.46-5.95-18.63-9.06c-3.89-1.96-7.43-4.46-10.72-7.32c-1.25-1.09-2.43-2.25-3.65-3.38
		c-2.44-2.25-4.94-4.44-7.31-6.76c-3.28-3.21-6.01-6.87-8.53-10.69c-1.18-1.79-2.52-3.48-3.81-5.2c-0.77-1.03-1.61-2-2.38-3.03
		c-0.98-1.29-1.94-2.6-2.88-3.92c-2.17-3.04-4.34-6.08-6.5-9.13c-0.13-0.18-0.21-0.4-0.33-0.59c-1.47-2.51-3.01-4.97-4.16-7.65
		c-0.92-2.15-1.94-4.26-2.8-6.43c-1.35-3.4-2.63-6.83-3.9-10.26c-1.75-4.74-3.54-9.47-5.18-14.25c-1.11-3.25-2.03-6.56-2.97-9.86
		c-0.61-2.14-1.17-4.3-1.6-6.48c-0.6-3.03-1.09-6.09-1.56-9.15c-0.56-3.69-1.23-7.38-1.5-11.1c-0.3-4.1-0.38-8.22-0.73-12.32
		c-0.31-3.68-0.4-7.38-0.58-11.08c-0.04-0.9-0.08-1.79-0.12-2.78c-0.56-0.03-1.04-0.08-1.52-0.08c-1.96-0.01-3.93,0-5.89-0.01
		c-3.36-0.01-6.72-0.02-10.08-0.02c-0.36,0-0.72,0.07-1.16,0.12c0.01,0.79-0.05,1.47,0.04,2.13c0.45,3.6,1,7.18,1.39,10.78
		c0.44,4.02,1.2,7.99,2.03,11.94c1,4.72,2.14,9.41,3.49,14.06c1.29,4.42,2.2,8.94,3.26,13.42c0.72,3.05,1.36,6.11,2.12,9.15
		c1.08,4.29,2.57,8.44,4.44,12.46c1.24,2.67,2.47,5.34,3.67,8.03c1.22,2.72,2.45,5.43,3.94,8.01c1.12,1.92,2.2,3.86,3.33,5.78
		c1.3,2.21,2.58,4.42,3.95,6.59c1.15,1.81,2.47,3.52,3.6,5.34c1.7,2.73,3.67,5.26,5.71,7.73c2.91,3.52,5.69,7.15,8.85,10.46
		c0.33,0.35,0.57,0.79,0.9,1.15c0.69,0.75,1.41,1.46,2.11,2.19c1.14,1.2,2.23,2.46,3.43,3.61c2.01,1.94,4.07,3.82,6.12,5.71
		c2.24,2.07,4.49,4.14,6.74,6.21c2.24,2.07,4.48,4.15,6.73,6.21c1.08,1,2.15,2.01,3.29,2.94c1.22,1,2.51,1.93,3.79,2.87
		c4.42,3.23,8.78,6.52,13.28,9.63c3.97,2.74,8.08,5.29,12.14,7.89c2.47,1.58,4.94,3.17,7.49,4.62c2.92,1.66,5.89,3.22,8.9,4.72
		c2.6,1.29,5.23,2.54,7.93,3.62c3.54,1.42,7.13,2.7,10.73,3.95c2.99,1.04,6.01,2.02,9.05,2.92c2.42,0.72,4.88,1.3,7.34,1.88
		c1.83,0.43,3.69,0.79,5.54,1.15c2.18,0.43,4.36,0.84,6.55,1.25c0.36,0.07,0.73,0.06,1.32,0.11
		C301.64,200.43,301.59,200.17,301.59,199.9z"/>
	<path class="st0" d="M301.18,225.87c-9.75-6.57-39.71-18.85-44.07-21.1c-3.32-1.71-6.59-3.52-9.87-5.32
		c-2.45-1.34-4.88-2.69-7.17-4.3c-1.6-1.13-3.27-2.16-4.91-3.23c-1.96-1.27-3.94-2.51-5.88-3.82c-1.65-1.12-3.25-2.32-4.88-3.47
		c-2.9-2.05-5.84-4.03-8.68-6.14c-3.57-2.65-7.07-5.41-10.61-8.1c-2.1-1.6-4.25-3.14-6.34-4.74c-2.99-2.29-5.95-4.61-8.94-6.91
		c-0.25-0.19-0.6-0.35-0.91-0.37c-1.54-0.07-3.09-0.11-4.64-0.12c-0.38,0-0.76,0.17-1.34,0.32c0.68,0.7,1.21,1.23,1.72,1.77
		c1.76,1.86,3.56,3.7,5.28,5.61c3.57,3.95,7.06,7.97,10.64,11.91c3.5,3.85,7.06,7.67,10.64,11.45c2.64,2.8,5.39,5.5,8.04,8.28
		c2.6,2.73,5.19,5.48,7.69,8.31c2.45,2.77,4.77,5.65,7.16,8.48c2.9,3.43,5.83,6.84,8.72,10.28c1.24,1.47,2.38,3.03,3.62,4.5
		c3.17,3.75,6.75,7.09,8.94,11.56c0.39,0.8,0.74,1.77,0.31,2.55c-0.21,0.38-0.58,0.65-0.8,1.02c-0.22,0.36-0.29,0.8-0.44,1.2
		c-0.37,0.97-1.3,1.7-2.32,1.84c-2.02,0.26-3.33-1.76-4.58-2.99c-2.81-2.79-5.35-5.84-7.85-8.91c-0.59-0.73-1.11-1.52-1.67-2.29
		c-1.05-1.43-2.04-2.91-3.16-4.28c-1.05-1.29-2.23-2.47-3.36-3.68c-0.28-0.3-0.63-0.54-0.94-0.81c-1.6-1.43-3.29-2.78-4.77-4.33
		c-2.27-2.38-4.35-4.92-6.58-7.34c-2.58-2.8-5.26-5.51-7.85-8.31c-2.94-3.19-5.81-6.44-8.74-9.65c-1.88-2.06-3.8-4.09-5.71-6.13
		c-1.91-2.04-3.83-4.07-5.74-6.1c-0.31-0.33-0.6-0.68-0.91-1.01c-0.33-0.35-0.69-0.51-1.21-0.36c-0.5,0.14-1.04,0.17-1.57,0.19
		c-2.34,0.07-4.67,0.14-7.01,0.17c-0.34,0.01-0.68-0.17-0.88-0.22c-0.36,0.14-0.65,0.34-0.96,0.37c-1.51,0.12-3.01,0.23-4.52,0.28
		c-1.09,0.03-2.19,0-3.28-0.08c-0.88-0.07-1.17-0.45-1.08-1.34c0.04-0.4-0.07-0.65-0.36-0.87c-0.24-0.18-0.47-0.38-0.71-0.56
		c-1.05-0.8-2.14-1.55-3.13-2.41c-1.02-0.88-2.26-1.4-3.24-2.4c-1.25-1.28-2.8-2.28-4.29-3.32c-3.13-2.17-6.3-4.29-9.46-6.42
		c-1.97-1.33-4.03-2.51-6.22-3.46c-0.52-0.23-0.96-0.71-1.34-1.15c-0.41-0.47-0.84-0.65-1.47-0.62c-2.97,0.15-5.95,0.22-8.92,0.38
		c-1.92,0.1-3.85-0.45-5.75,0.14c-0.07,0.02-0.16,0.02-0.22,0c-1.36-0.42-2.74-0.79-4.08-1.29c-0.36-0.13-0.79-0.62-0.81-0.97
		c-0.03-0.61-0.33-0.99-0.66-1.38c-0.37-0.43-0.81-0.79-1.18-1.21c-1.66-1.91-3.35-3.8-4.96-5.75c-2.63-3.17-5.23-6.36-7.8-9.58
		c-0.51-0.63-1.07-0.88-1.84-0.87c-1.25,0.01-2.49-0.02-3.74-0.06c-4.83-0.17-9.65-0.49-14.49-0.05c-2.82,0.25-5.66,0.28-8.47,0.6
		c-4.51,0.52-9.03,0.7-13.56,0.57c-0.83-0.02-1.51,0.2-2.17,0.74c-1.77,1.47-3.58,2.91-5.41,4.3c-2.52,1.92-5.1,3.78-7.63,5.68
		c-1.99,1.5-3.96,3.02-5.93,4.54c-2.46,1.88-4.9,3.78-7.37,5.65c-0.47,0.36-0.75,0.76-0.92,1.35c-0.52,1.85-1.1,3.69-1.71,5.52
		c-0.55,1.65-1.17,3.27-1.73,4.91c-0.63,1.81-0.89,3.76-2.17,5.3c-0.07,0.08-0.11,0.2-0.14,0.31c-0.24,0.8-0.88,1.15-1.61,1.17
		c-2.75,0.09-5.51,0.19-8.26,0.14c-2.71-0.05-5.42-0.29-8.13-0.44c-3.17-0.18-6.33-0.36-9.5-0.55c-0.52-0.03-1.03-0.09-1.69-0.15
		c-0.02,1.07-0.04,2.03-0.06,3.12c2.43,0.26,4.75,0.52,7.07,0.76c2.96,0.31,5.93,0.59,8.89,0.91c1.31,0.14,2.61,0.41,3.93,0.54
		c4.74,0.45,9.46,0.99,14.14,1.88c0.82,0.15,1.64,0.3,2.42,0.57c3.24,1.14,6.51,2.2,9.68,3.52c3.56,1.48,6.91,3.36,9.94,5.81
		c1.7,1.37,3.54,2.58,5.28,3.89c1.11,0.84,2.27,1.66,3.23,2.65c1.44,1.49,2.74,3.11,4.08,4.69c0.9,1.06,1.78,2.15,2.65,3.24
		c0.25,0.31,0.43,0.68,0.69,1.09c-3.15-2.35-6.2-4.63-9.25-6.9c-0.21-0.16-0.42-0.38-0.66-0.43c-1.11-0.23-1.78-1.08-2.59-1.73
		c-0.12-0.09-0.21-0.22-0.33-0.31c-2.96-2.34-5.92-4.68-9.13-6.67c-3.46-2.14-7.18-3.71-11.06-4.88c-3.99-1.2-8.13-1.67-12.22-2.35
		c-2.68-0.44-5.39-0.68-8.08-1.05c-2.65-0.37-5.3-0.82-7.95-1.19c-3.22-0.45-6.44-0.84-9.66-1.26c-0.33-0.04-0.66-0.07-1.1-0.11
		c-0.03,1.59-0.05,3.08-0.08,4.69c1.5,0.16,2.87,0.32,4.26,0.43c1.24,0.1,2.49,0.08,3.73,0.2c2.56,0.24,5.11,0.53,7.66,0.81
		c1.2,0.13,2.4,0.27,3.6,0.45c0.36,0.05,0.68,0.31,1.04,0.36c0.43,0.07,0.88-0.03,1.32,0.03c1.68,0.25,3.34,0.69,5.02,0.78
		c2.5,0.13,4.93,0.49,7.35,1.19c3.12,0.91,6.22,1.85,9.16,3.25c2.52,1.2,5.13,2.21,7.51,3.68c2.4,1.49,4.94,2.77,7.26,4.37
		c3.47,2.4,6.83,4.98,10.2,7.53c2.79,2.12,5.29,4.57,7.76,7.04c1.44,1.44,2.89,2.87,4.32,4.32c0.58,0.59,1.19,1.17,1.68,1.83
		c1.11,1.48,2.15,3,3.22,4.51c0.78,1.1,1.62,2.17,2.32,3.31c1.98,3.21,3.9,6.45,5.85,9.67c0.41,0.68,0.73,1.42,1.22,2.03
		c1.18,1.47,2.46,2.87,3.65,4.33c1.21,1.49,2.26,3.13,3.56,4.54c2.44,2.62,4.07,5.72,5.43,8.95c0.81,1.93,1.61,3.82,2.91,5.47
		c0.09,0.12,0.18,0.25,0.24,0.38c1.42,2.87,2.9,5.72,4.25,8.63c1.03,2.22,1.86,4.53,2.81,6.8c3.34,7.95,5.94,16.14,8.16,24.46
		c1.12,4.23,2.24,8.46,3.68,12.59c0.84,2.42,1.51,4.9,2.25,7.35c0.67,2.2,1.34,4.39,2,6.6c0.2,0.65,0.39,1.3,0.53,1.97
		c0.51,2.48,1.06,4.95,1.47,7.44c0.22,1.36,0.39,2.74,0.53,4.11c1.13,0.01,2.26,0.04,3.39,0.11c0.11-0.01,0.22-0.01,0.33-0.02
		c-0.79-7.11-2.3-14.1-3.94-21.05c-0.68-2.86-1.54-5.68-2.39-8.5c-1.03-3.4-2.09-6.78-3.22-10.14c-0.72-2.14-1.61-4.23-2.4-6.35
		c-0.92-2.48-1.79-4.97-2.71-7.45c-1.74-4.67-3.52-9.32-5.25-13.99c-1.63-4.43-3.72-8.66-5.59-13c-1.68-3.89-3.71-7.59-5.94-11.18
		c-0.44-0.7-0.89-1.4-1.42-2.04c-1.3-1.57-2.65-3.1-3.97-4.65c-0.86-1-1.63-2.09-2.56-3.01c-1.03-1.02-1.96-2.08-2.62-3.38
		c-0.74-1.44-1.58-2.82-2.7-4.03c-0.26-0.28-0.41-0.65-0.61-0.98c0.05-0.08,0.11-0.15,0.16-0.23c0.62,0.07,1.24,0.12,1.86,0.2
		c0.41,0.06,0.81,0.24,1.21,0.24c2.6,0.02,5.18,0.39,7.79-0.02c1.82-0.29,3.69-0.22,5.54-0.3c0.87-0.04,1.74-0.08,2.6-0.07
		c3.06,0.04,6.11,0.16,9.17,0.15c3.55-0.01,7.1-0.2,10.64-0.19c3.02,0.02,6.03,0.18,9.05,0.34c5.31,0.29,10.63,0.56,15.95,0.41
		c1.51-0.04,3.02-0.04,4.53-0.09c1.92-0.06,3.84-0.18,5.77-0.22c1.13-0.03,2.27,0.06,3.4,0.06c5.28,0,10.56-0.02,15.83-0.01
		c4.19,0,8.38,0.05,12.57,0.04c2.6-0.01,5.21-0.03,7.81-0.15c2.67-0.13,5.34-0.37,8.01-0.58c3.19-0.25,6.38-0.53,9.64-0.8
		c-0.07-0.41-0.13-0.72-0.19-1.06c-0.25-0.01-0.44-0.05-0.62-0.03c-2.58,0.2-5.17,0.42-7.75,0.6c-2.94,0.2-5.88,0.46-8.82,0.53
		c-3.96,0.09-7.93,0.07-11.89,0.03c-5.66-0.05-11.32-0.23-16.97-0.62c-3.05-0.21-6.11-0.19-9.16-0.34
		c-2.41-0.11-4.81-0.38-7.22-0.47c-2.71-0.11-5.43-0.09-8.14-0.14c-2.79-0.06-5.59-0.12-8.38-0.21c-1.24-0.04-2.47-0.15-3.71-0.18
		c-1.12-0.03-2.25,0.03-3.38-0.02c-2.19-0.09-4.37-0.28-6.56-0.34c-4.98-0.12-9.97-0.18-14.95-0.27c-0.98-0.02-1.98-0.17-2.93-0.16
		c-3.28,0.05-6.55,0.45-9.82,0.47c-3.24,0.02-6.48-0.26-9.72-0.44c-0.77-0.04-1.53-0.16-2.05-0.94c-2.54-3.79-5.12-7.56-7.68-11.34
		c-0.17-0.25-0.29-0.52-0.4-0.8c-0.26-0.68-0.5-1.37-0.79-2.18c0.5-0.15,1.06-0.31,1.62-0.48c2.28-0.71,4.57-1.21,7-1.01
		c2.22,0.18,4.45,0.21,6.68,0.27c3.73,0.11,7.47,0.14,11.2,0.3c3.28,0.14,6.55,0.44,9.83,0.62c1.73,0.09,3.47,0.11,5.2,0.13
		c3.55,0.04,7.09,0.12,10.64,0.07c4.68-0.06,9.36-0.34,14.03-0.33c6.15,0.02,12.28,0.61,18.41,1.18c3.45,0.32,6.91,0.71,10.37,0.82
		c4.98,0.16,9.96,0.08,14.94,0.14c1.88,0.03,3.76,0.2,5.65,0.27c2.03,0.07,4.07,0.08,6.11,0.14c1.43,0.04,2.87,0.16,4.3,0.18
		c3.05,0.05,6.11,0.07,9.16,0.1c0.34,0,0.74,0.14,0.99,0c0.28-0.15,0.42-0.55,0.61-0.8c0.59,0.34,1.19,0.64,1.74,1.01
		c0.78,0.52,1.52,1.12,2.3,1.64c1.41,0.94,2.87,1.82,4.27,2.78c0.7,0.48,1.36,1.05,1.97,1.65c0.54,0.52,0.92,1.2,1.49,1.69
		c1.16,1,2.1,2.16,2.99,3.39c0.71,0.98,1.45,1.93,2.18,2.89c0.37,0.49,0.77,0.92,1.43,1.01c0.59,0.08,0.78,0.45,0.76,1.05
		c-0.01,0.38,0.09,0.84,0.32,1.14c1.73,2.29,3.52,4.53,5.24,6.83c1.29,1.72,2.49,3.51,3.72,5.27c0.25,0.36,0.45,0.73-0.13,1.05
		c-0.19-0.08-0.41-0.13-0.6-0.25c-1.57-0.96-3.15-1.9-4.69-2.91c-0.98-0.64-1.92-1.34-2.83-2.07c-0.77-0.61-1.62-0.74-2.54-0.63
		c-0.22,0.03-0.45,0.08-0.67,0.1c-4.75,0.28-9.5,0.51-14.24,0.84c-5.35,0.37-10.69,0.85-16.04,1.22c-4.03,0.28-8.06,0.53-12.1,0.69
		c-4.07,0.16-8.15,0.21-12.23,0.29c-2.19,0.04-4.38,0.07-6.57,0.06c-2.53-0.01-5.06-0.09-7.59-0.12c-3.58-0.03-7.17,0.03-10.75-0.08
		c-3.77-0.11-7.54-0.38-11.31-0.56c-1.88-0.09-3.77-0.09-5.65-0.23c-3.95-0.3-7.9-0.66-11.85-0.99c-3.35-0.28-6.7-0.59-10.05-0.8
		c-1.93-0.13-3.85-0.16-5.7-0.82c-0.17-0.06-0.4,0.03-0.72,0.06c0.21,0.33,0.32,0.56,0.49,0.75c0.64,0.69,1.3,1.37,1.95,2.05
		c2.67,2.74,5.08,5.7,7.01,8.99c2.77,4.71,5.48,9.47,7.82,14.42c1.4,2.96,3.02,5.82,4.44,8.78c0.55,1.15,1.1,1.84,2.54,1.83
		c1.73-0.01,3.45,0.45,5.18,0.46c4.07,0.03,8.15-0.01,12.22-0.18c3.39-0.14,6.78-0.46,10.16-0.75c4.4-0.37,8.8-0.78,13.19-1.17
		c3.65-0.32,7.29-0.67,10.94-0.95c3.38-0.26,6.75-0.51,10.15-0.53c1.92-0.02,3.84-0.28,5.75-0.48c2.06-0.21,4.11-0.48,6.17-0.67
		c1.31-0.12,2.63-0.11,3.94-0.2c2.82-0.19,5.64-0.44,8.46-0.62c2.29-0.15,4.59-0.23,6.88-0.34c0.34-0.02,0.68-0.1,1.01-0.08
		c2.48,0.1,4.97,0.23,7.45,0.31c4.15,0.14,8.3,0.23,12.45,0.36c2.64,0.08,5.28,0.2,7.93,0.28c0.37,0.01,0.75-0.03,1.12-0.12
		c1.25-0.28,2.47-0.7,3.73-0.87c6.1-0.86,12.24-1.33,18.39-1.51c3.13-0.09,6.26-0.1,9.39-0.23c2.9-0.12,5.8-0.34,8.7-0.51
		c0.32-0.02,0.65-0.04,0.95-0.06c0.26-1.96,0.63-32.66,0.67-49.28C301.23,225.89,301.2,225.88,301.18,225.87z M124.78,163.78
		c1.92-0.14,3.84-0.19,5.76-0.25c0.9-0.03,1.81,0.01,2.71,0.03c0.45,0.01,0.9,0.04,1.35,0.12c0.64,0.11,1.25,0.23,1.85-0.19
		c0.46-0.32,0.86,0,1.24,0.26c2.22,1.49,4.47,2.95,6.66,4.49c2.38,1.67,4.72,3.38,7.03,5.14c0.85,0.64,1.7,1.34,2.37,2.49
		c-1.2-0.01-2.25,0.01-3.29-0.04c-1.4-0.06-2.79-0.19-4.18-0.27c-0.3-0.02-0.61-0.02-0.9,0.02c-3.91,0.49-7.83,0.34-11.75,0.22
		c-0.37-0.01-0.78-0.05-1.09,0.1c-0.49,0.24-0.81,0.06-1.1-0.25c-1.06-1.12-2.18-2.19-3.12-3.41c-0.78-1-1.32-2.18-1.98-3.28
		c-0.75-1.26-1.52-2.52-2.27-3.78C123.52,164.26,123.69,163.86,124.78,163.78z M66.95,152.31c1.97-1.75,3.93-3.53,5.87-5.32
		c0.44-0.41,0.8-0.91,1.2-1.37c-0.04-0.08-0.07-0.16-0.11-0.25c0.78-0.01,1.57-0.05,2.35-0.02c0.79,0.03,1.58,0.13,2.37,0.18
		c0.56,0.04,1.1,0.04,1.63-0.3c0.42-0.27,0.97-0.33,1.35,0.11c0.35,0.41,0.77,0.4,1.23,0.42c1.21,0.05,2.41,0.11,3.61,0.21
		c3.99,0.31,7.98,0.65,11.97,0.96c2.51,0.2,5.03,0.37,7.73,0.56c-0.58,1.04,0.02,1.42,0.59,1.97c0.86,0.83,1.66,1.78,2.27,2.81
		c1.15,1.91,2.29,3.82,3.7,5.56c0.73,0.91,1.28,1.96,1.95,2.91c0.57,0.8,1.22,1.54,1.8,2.33c1.27,1.73,2.54,3.47,3.79,5.22
		c1.05,1.48,2.03,3,3.13,4.44c0.37,0.48,1.01,0.74,1.5,1.13c0.34,0.26,0.64,0.57,0.96,0.86c-0.03,0.09-0.05,0.18-0.08,0.27
		c-0.39,0.04-0.77,0.12-1.16,0.13c-2.49,0.07-4.98,0.13-7.47,0.18c-0.6,0.01-1.2-0.05-1.8-0.08c-1.62-0.08-3.24-0.14-4.86-0.25
		c-2.03-0.13-4.06-0.37-6.09-0.43c-3.17-0.1-6.34-0.09-9.51-0.13c-2.3-0.03-4.6-0.08-6.91-0.09c-2.6-0.02-5.21,0.05-7.81-0.02
		c-4.91-0.12-9.81-0.31-14.72-0.47c-0.63-0.02-1.28,0.09-1.89-0.03c-1.23-0.23-2.02-1.13-2.69-2.09c-0.74-1.05-1.39-2.15-2.08-3.23
		c-0.8-1.24-1.66-2.44-2.37-3.72c-0.36-0.65-0.97-0.61-1.54-0.82c0.05-0.78,0.67-1.1,1.11-1.52c0.69-0.65,1.42-1.25,2.12-1.88
		c1.15-1.04,2.22-2.17,3.45-3.1C63.52,155.92,65.09,153.97,66.95,152.31z M33.63,178.36c-0.67,0.01-1.34-0.01-2.08-0.02
		c0.21-1.24,0.31-2.37,0.6-3.44c0.82-2.99,2.05-5.83,3.3-8.65c0.55-1.25,1.59-2.09,2.48-3.05c0.17-0.18,0.45-0.3,0.7-0.35
		c1.54-0.31,2.61-1.38,3.58-2.43c1.24-1.32,2.72-2.26,4.2-3.22c1.48-0.96,3.02-1.85,4.51-2.81c0.5-0.32,0.91-0.78,1.38-1.16
		c3.42-2.78,6.84-5.55,10.26-8.32c0.46-0.37,0.96-0.7,1.61-1.16c-0.22,1.69-1.01,2.84-1.94,3.79c-2.59,2.68-5.26,5.29-7.96,7.86
		c-1.77,1.68-3.65,3.24-5.48,4.85c-0.73,0.65-0.76,0.95-0.13,1.7c1.72,2.05,3.45,4.09,5.17,6.13c0.04,0.77,1.22,0.91,1,1.83
		c-0.01,0.05,0.15,0.13,0.22,0.21c0.55,0.61,1.12,1.2,1.62,1.83c1.24,1.56,2.38,3.21,3.72,4.68c0.5,0.54,1.43,0.69,2.11,1
		c-0.54,0.18-1.2,0.4-1.86,0.6c-0.12,0.04-0.31-0.02-0.43-0.1c-0.65-0.4-1.37-0.39-2.09-0.34c-3.8,0.26-7.61,0.39-11.42,0.36
		c-1.5-0.01-3,0.27-4.5,0.28c-2,0.02-4-0.11-6-0.14C35.36,178.29,34.5,178.35,33.63,178.36z M58.1,192.45c-1.02-0.26-2-0.66-3-1.01
		c-0.16-0.06-0.3-0.19-0.44-0.29c0.02-0.08,0.04-0.16,0.06-0.24c2.85-0.5,5.69-1.07,8.63-0.83c0.75,0.06,1.51,0.02,2.26,0.05
		c1.01,0.04,2.03,0.07,3.04,0.18c5.49,0.61,10.99,0.88,16.51,0.36c3.49-0.33,6.98-0.64,10.48-0.98c0.43-0.04,0.86-0.15,1.29-0.23
		c0.01-0.09,0.02-0.18,0.03-0.27c-0.2-0.09-0.4-0.25-0.6-0.25c-4.42-0.1-8.83-0.27-13.25-0.24c-4.15,0.03-8.3,0.33-12.45,0.39
		c-2.07,0.03-4.14-0.22-6.22-0.31c-1.39-0.06-2.79,0-4.18-0.1c-1.81-0.13-3.61-0.33-5.4-0.58c-0.93-0.13-1.85-0.38-2.76-0.62
		c-1.24-0.33-2.46-0.74-3.7-1.06c-1.18-0.3-2.18-0.9-2.96-1.79c-0.57-0.66-1.3-1.01-2.03-1.39c-0.58-0.31-1.14-0.68-1.76-1.05
		c0.97,0.05,1.83,0.09,2.68,0.13c1.2,0.06,2.41,0.16,3.61,0.18c1.09,0.02,2.19-0.11,3.28-0.05c3.35,0.21,6.62-0.55,9.93-0.69
		c3.13-0.14,6.26-0.19,9.4-0.27c2.3-0.06,4.6-0.12,6.91-0.12c4.49-0.02,8.97,0.15,13.45,0.64c2.47,0.27,4.96,0.33,7.43,0.57
		c2.51,0.24,5.02,0.55,7.53,0.88c3.41,0.45,6.82,0.96,10.26,0.69c2.84-0.22,5.65-0.11,8.48,0.1c6.17,0.45,12.35,0.83,18.52,1.35
		c7.5,0.63,15.01,0.62,22.51,0.79c3.43,0.08,6.85,0.44,10.28,0.7c1.2,0.09,2.41,0.18,3.6,0.36c2.87,0.43,5.74,0.91,8.61,1.37
		c0.46,0.07,0.96,0.03,1.14,0.69c0.06,0.23,0.53,0.36,0.8,0.53c0.05,0.45,0.1,0.89,0.16,1.4c-0.75,0.47-1.63,0.68-2.53,0.66
		c-2.34-0.06-4.67-0.17-7.01-0.28c-3.84-0.18-7.68-0.39-11.53-0.54c-3.77-0.15-7.55-0.3-11.32-0.36c-3.47-0.05-6.95,0.09-10.42,0.03
		c-5.7-0.11-11.4-0.31-17.1-0.5c-4.04-0.13-8.07-0.31-12.11-0.46c-3.24-0.12-6.49-0.21-9.74-0.35c-2.94-0.13-5.88-0.31-8.82-0.46
		c-0.32-0.02-0.63,0.03-1.01,0.26c0.15,0.12,0.3,0.35,0.43,0.33c0.8-0.08,1.46,0.24,2.14,0.59c1.3,0.67,2.77,0.74,4.18,0.91
		c2.92,0.36,5.84,0.69,8.77,0.94c2.82,0.25,5.63,0.39,8.47,0c1.78-0.24,3.62-0.1,5.43,0c3.16,0.17,6.32,0.41,9.48,0.69
		c2.94,0.26,5.87,0.26,8.82,0.2c1.92-0.04,3.84,0.23,5.76,0.27c2.49,0.05,4.98,0.04,7.47,0.03c5.85-0.04,11.7-0.14,17.55-0.12
		c3.7,0.01,7.4,0.13,11.1,0.27c1.88,0.07,3.77,0.27,5.64,0.5c0.52,0.06,1.03,0.41,1.51,0.69c0.49,0.29,0.48,0.79,0.19,1.19
		c-0.38,0.52-0.87,0.94-1.6,0.93c-2.57-0.03-5.13-0.08-7.7-0.07c-2.38,0.01-4.75,0.12-7.13,0.13c-4.83,0.01-9.66-0.02-14.49-0.04
		c-3.47-0.01-6.95,0.04-10.42-0.07c-4.11-0.13-8.22-0.45-12.33-0.63c-4.68-0.2-9.36-0.36-14.04-0.46
		c-5.02-0.11-10.04-0.12-15.06-0.19c-2.79-0.04-5.59-0.16-8.38-0.16c-1.62,0-3.24,0.25-4.86,0.28c-5.44,0.1-10.84,0.85-16.28,0.79
		c-3.45-0.03-6.86-0.37-10.28-0.74c-1.24-0.14-2.52-0.18-3.69-0.55C65.65,193.94,61.82,193.4,58.1,192.45z M68.46,199.89
		c1.11,0.14,2.22,0.27,3.34,0.41c0.02-0.08,0.04-0.16,0.07-0.24c-1.5-0.61-3.3-0.46-4.65-1.61c0.23-0.41,0.64-0.39,0.99-0.42
		c2.22-0.14,4.44-0.32,6.67-0.39c4.57-0.13,9.13-0.21,13.7-0.28c3.06-0.05,6.12-0.09,9.18-0.06c5.47,0.07,10.95,0.15,16.42,0.31
		c4.87,0.14,9.73,0.45,14.59,0.59c5.51,0.16,11.02,0.2,16.52,0.35c4.61,0.12,9.21,0.31,13.81,0.48c3.06,0.11,6.11,0.2,9.17,0.36
		c5.01,0.26,10.03,0.53,15.03,0.87c5.61,0.39,11.21,0.87,16.82,1.31c0.44,0.04,0.88,0.15,1.36,0.24c0,0.83-0.52,0.81-1,0.72
		c-1.39-0.27-2.76,0.14-4.14,0.12c-0.13,0-0.25,0.09-0.4,0.35c0.92,0.19,1.84,0.38,2.77,0.58c0,0.06,0,0.12,0,0.18
		c-0.87,0.05-1.74,0.14-2.61,0.16c-6.57,0.13-13.14,0.25-19.7,0.36c-3.09,0.05-6.19,0.1-9.28,0.09c-4.04-0.01-8.08-0.08-12.12-0.14
		c-4.98-0.07-9.97-0.12-14.95-0.22c-4.15-0.09-8.3-0.29-12.46-0.34c-2.53-0.03-5.05,0.14-7.58,0.2c-1.47,0.04-2.94,0.04-4.42,0.05
		c-6.04,0.03-12.08,0.05-18.13,0.09c-1.24,0.01-2.49,0.04-3.73,0.1c-4.91,0.24-9.79-0.01-14.63-0.82c-0.18-0.03-0.36-0.03-0.86-0.07
		c0.4,0.45,0.62,0.69,0.83,0.94c-0.4-0.32-0.96-0.19-1.01,0.12c-0.14,0.79-0.68,0.74-1.45,0.94c0.31-0.45,0.51-0.69,0.66-0.95
		c0.32-0.54,0.25-0.9-0.28-1.25c-0.25-0.16-0.54-0.27-0.83-0.35c-1.49-0.39-2.98-0.81-4.48-1.11
		C70.46,201.33,69.43,200.76,68.46,199.89z M84.46,205.16l-0.1,0.16c-0.15-0.09-0.3-0.19-0.45-0.28c0.03-0.06,0.07-0.11,0.1-0.17
		C84.16,204.97,84.31,205.06,84.46,205.16z M83.33,205.03c-0.16,0-0.31,0-0.47-0.01c0-0.05,0-0.11,0-0.16
		c0.16-0.01,0.31-0.01,0.47-0.02C83.33,204.9,83.33,204.96,83.33,205.03z M215.02,217.24c-0.12,0.05-0.24,0.16-0.38,0.16
		c-3.84,0.21-7.69,0.52-11.53,0.57c-3.92,0.05-7.85-0.18-11.77-0.25c-2.53-0.04-5.06,0.02-7.59-0.03
		c-5.78-0.1-11.55-0.25-17.33-0.36c-2.49-0.05-4.98,0-7.47-0.08c-4.87-0.16-9.74-0.36-14.6-0.57c-8-0.34-15.99-0.74-23.99-1.05
		c-5.43-0.2-10.87-0.31-16.3-0.4c-4.11-0.06-8.23,0.06-12.34-0.05c-2.79-0.07-5.57-0.4-8.35-0.61c-0.76-0.06-1.51-0.06-2.26-0.24
		c-0.34-0.08-0.75,0.11-1.13,0.17c-0.07,0.06-0.13,0.12-0.2,0.18c-0.98-1.28-1.96-2.56-2.95-3.84c-0.64-0.83-1.27-1.66-1.72-2.63
		c-0.21-0.44-0.71-0.75-1.15-1.18c0.3-0.22,0.62-0.45,0.76-0.56c1.13,0.03,2.05,0.11,2.97,0.08c1.05-0.04,2.1-0.23,3.15-0.28
		c1.81-0.09,3.61-0.16,5.42-0.17c2.78-0.03,5.57-0.04,8.35,0c3.25,0.05,6.49,0.17,9.74,0.25c2.3,0.05,4.61,0.03,6.91,0.11
		c3.58,0.13,7.16,0.43,10.75,0.47c3.62,0.04,7.24-0.18,10.87-0.24c2.94-0.05,5.89-0.14,8.83-0.05c4.49,0.13,8.97,0.41,13.45,0.58
		c4.45,0.17,8.9,0.3,13.36,0.4c3.28,0.08,6.57,0.14,9.85,0.12c2.86-0.01,5.72-0.15,8.59-0.22c4.38-0.11,8.76-0.02,13.13,0.29
		c1.35,0.09,2.71,0.13,4.07,0.16c0.69,0.02,1.35-0.27,2.1-0.02c0.7,0.23,1.31,0.52,1.88,0.96c0.38,0.3,0.8,0.56,1.24,0.77
		c0.44,0.22,0.67,0.48,0.7,1.03c0.02,0.4,0.3,0.84,0.58,1.15c1.2,1.3,2.45,2.56,3.67,3.85
		C214.68,216.12,215.11,216.54,215.02,217.24z"/>
	<path class="st0" d="M300.18,282.45c-0.1,0.53-0.47,0.76-0.9,0.94c-3.12,1.25-6.41,5.37-8.93,7.61
		c-2.68,2.38-8.51,10.3-12.23,10.09c-4.26-0.24-8.44,0.36-12.55,1.42c-13.24,3.43-27.61,3.22-41.19,4.34
		c-6.13,0.5-12.27,0.95-18.4,1.5c-3.23,0.29-6.45,0.75-9.68,1.13c-5.17,0.6-10.3,1.58-15.5,1.9c-6.59,0.41-13.19,0.81-19.78,1.22
		c-2.03,0.13-4.07,0.43-6.1,0.41c-3.02-0.03-6.03-0.29-9.05-0.43c-0.41-0.02-0.63-0.21-0.73-0.57c-0.17-0.58-0.34-1.16-0.5-1.74
		c-1.31-4.73-2.59-9.46-3.95-14.18c-0.44-1.52-1.08-2.98-1.63-4.47c-0.1-0.28-0.21-0.55-0.34-0.9c0.29-0.13,0.51-0.28,0.74-0.32
		c4.81-0.99,9.62-1.95,14.52-2.36c4.02-0.34,8.06-0.53,12.1-0.68c5.28-0.2,10.57-0.31,15.85-0.42c3.25-0.07,6.49-0.03,9.74-0.12
		c2.98-0.08,5.96-0.26,8.94-0.4c3.36-0.17,6.71-0.32,10.07-0.53c3.84-0.24,7.68-0.49,11.52-0.79c2.97-0.23,5.93-0.61,8.91-0.81
		c4.29-0.3,8.59-0.51,12.89-0.74c3.09-0.17,6.18-0.31,9.27-0.46c2.56-0.12,5.12-0.28,7.69-0.35c6.03-0.16,12.07-0.27,18.1-0.42
		c3.7-0.09,7.39-0.32,11.09-0.32c3.24,0,6.49,0.21,9.73,0.34C299.97,282.33,300.07,282.4,300.18,282.45z"/>
	<path class="st0" d="M91.09,285.93c1.92,4.43,3.78,8.89,5.6,13.37c1.91,4.68,3.88,9.35,5.56,14.11c1.83,5.19,3.37,10.49,5,15.75
		c0.48,1.55,0.67,3.19,1.21,4.71c1.25,3.51,1.84,7.16,2.4,10.82c0.23,1.49,0.45,2.97,0.67,4.46c1.25,0.13,2.51,0.29,3.8,0.47
		c0.15-0.02,0.3-0.03,0.44-0.05c-0.66-5.36-1.61-10.67-2.63-15.97c-1.03-5.35-2.71-10.52-4.52-15.65
		c-1.79-5.05-3.65-10.08-5.46-15.12c-0.99-2.77-1.92-5.57-2.91-8.34c-1.51-4.23-3.43-8.3-5.42-12.32c-1.2-2.43-2.47-4.84-3.79-7.21
		c-1.58-2.83-3.24-5.62-4.88-8.42c-1.43-2.44-2.86-4.89-4.33-7.3c-1.5-2.45-3.04-4.87-4.6-7.27c-1.19-1.83-2.36-3.7-3.69-5.42
		c-1.76-2.27-3.67-4.41-5.52-6.6c-0.42-0.5-0.82-1.01-1.23-1.52c1.94,0.25,3.37,1.54,5.15,2.05c0.25-0.8-0.68-1.48-0.01-2.33
		c0.31,0.27,0.63,0.46,0.85,0.74c0.68,0.86,1.33,1.74,1.98,2.62c1.65,2.26,3.33,4.48,5.41,6.39c0.46,0.42,0.93,0.93,1.16,1.49
		c0.36,0.89,0.91,1.62,1.42,2.4c1.79,2.74,3.6,5.48,5.23,8.33c2.09,3.67,4.03,7.43,6,11.16c1.55,2.93,3.12,5.86,4.56,8.85
		c1.26,2.62,2.42,5.29,3.48,7.99c1.44,3.69,2.77,7.42,4.09,11.15c1.28,3.63,2.49,7.28,3.75,10.92c1.05,3.03,2.12,6.05,3.17,9.08
		c0.42,1.21,0.84,2.42,1.24,3.63c0.64,1.93,1.41,3.83,1.87,5.81c1.13,4.85,2.21,9.72,3.12,14.61c0.36,1.93,0.68,3.86,0.97,5.79
		c1.27-0.13,2.54-0.26,3.82-0.38c-0.43-2.81-0.96-5.6-1.51-8.39c-0.59-3.04-1.11-6.1-1.9-9.08c-1.39-5.25-2.87-10.48-4.47-15.68
		c-2.02-6.56-4.11-13.11-6.36-19.6c-1.1-3.16-2.59-6.19-3.98-9.24c-1.43-3.16-2.92-6.3-4.45-9.42c-1.75-3.55-3.65-7.03-5.36-10.61
		c-2.5-5.22-5.48-10.16-8.61-15.01c-1.53-2.38-3.08-4.75-4.67-7.09c-1.08-1.59-2.22-3.14-3.36-4.69c-1.3-1.76-2.7-3.46-3.91-5.27
		c-1.79-2.68-3.79-5.18-6.02-7.49c-1.65-1.71-3.35-3.38-5.09-4.99c-1.8-1.66-3.61-3.33-5.55-4.83c-2.95-2.29-5.95-4.51-9.02-6.63
		c-2.48-1.71-5.05-3.31-7.94-4.28c-0.96-0.32-1.89-0.76-2.83-1.16c-2.26-0.95-4.51-1.95-6.79-2.84c-4.94-1.94-10.17-2.86-15.29-4.16
		c-5.55-1.42-11.28-1.58-16.97-2.05c-0.47-0.04-0.95,0.04-1.51,0.07c-0.01,0.9-0.02,1.68-0.03,2.52c0.42,0.05,0.75,0.13,1.08,0.13
		c1.24,0.01,2.48-0.05,3.72,0c2.83,0.11,5.66,0.21,8.48,0.44c2.86,0.23,5.71,0.62,8.42,1.65c1.09,0.41,2.18,0.84,3.38,0.9
		c0.4,0.02,0.81,0.2,1.19,0.35c2.62,1.05,5.24,2.1,8.01,2.73c0.18,0.04,0.35,0.14,0.52,0.22c0.57,0.28,1.12,0.63,1.72,0.83
		c2.75,0.91,5.27,2.28,7.67,3.85c2.66,1.72,5.23,3.58,7.83,5.39c0.47,0.33,0.87,0.75,1.3,1.12c-0.39,0.07-0.66-0.03-0.93-0.14
		c-3.57-1.54-7.13-3.11-10.72-4.61c-4.6-1.91-9.19-3.87-13.86-5.61c-4.03-1.5-8.15-2.77-12.26-4.07c-3.54-1.12-7.17-1.83-10.9-1.86
		c-1.54-0.01-3.08,0.02-4.72,0.31c0.24,2.28-0.14,4.51,0.06,6.76c0.81-0.2,1.49-0.44,2.19-0.54c1.3-0.18,2.61-0.34,3.91-0.41
		c1.99-0.11,3.99-0.15,5.99-0.21c0.75-0.02,1.51-0.1,2.26-0.02c1.63,0.18,3.12,0.8,4.53,1.61c0.45,0.26,0.95,0.45,1.44,0.63
		c0.56,0.21,1.16,0.35,1.71,0.58c1.98,0.84,3.96,1.69,5.91,2.59c2.05,0.95,4.11,1.9,6.1,2.97c1.2,0.64,1.16,0.78,0.68,2.35
		c-0.75-0.14-1.51-0.28-2.28-0.42c-0.37-0.07-0.74-0.17-1.1-0.16c-2.18,0.04-4.37,0.14-6.55,0.16c-1.58,0.01-3.17-0.04-4.76-0.11
		c-6.41-0.29-12.83-0.61-19.24-0.91c-0.29-0.01-0.58,0-1,0c0.01,0.99,0.02,1.91,0.04,2.77c1.46,0.08,2.77,0.15,4.08,0.22
		c0.11,0.01,0.23-0.01,0.34-0.01c2.6,0.01,5.22-0.12,7.81,0.07c3.85,0.29,7.7,0.09,11.55,0.22c4.59,0.16,9.18,0.26,13.59,1.94
		c1.62,0.62,3.28,1.1,4.78,1.98c1.56,0.91,3.15,1.8,4.63,2.82c2.49,1.72,4.75,3.72,6.87,5.88c0.52,0.53,0.94,1.14,1.51,1.84
		c-1.28,0.6-1.89-0.47-2.55-0.67c-0.58,0.29-0.93,0.52-1.31,0.64c-0.32,0.1-0.68,0.04-1.01,0.11c-2.52,0.53-5.08,0.74-7.63,0.88
		c-4.56,0.24-9.13,0.35-13.69,0.5c-5.1,0.17-10.19,0.38-15.29,0.47c-4,0.07-8,0.44-12,0.04c-0.59-0.06-1.19,0.01-1.88,0.02
		c-0.02,0.48-0.04,0.88-0.06,1.38c0.92-0.34,1.71-0.56,2.45,0.07c0.07,0.06,0.23,0.05,0.33,0.02c0.7-0.2,1.38-0.08,2.1,0.01
		c2.39,0.31,4.8,0.52,7.2,0.7c3.24,0.24,6.48,0.29,9.73,0.12c4.82-0.25,9.65-0.45,14.47-0.59c2.34-0.07,4.68,0.05,7.01,0.04
		c1.92-0.01,3.85-0.15,5.77-0.11c2.72,0.06,5.43,0.17,8.14,0.36c1.53,0.11,3.06,0.41,4.66,0.64c-0.13,0.42-0.22,0.73-0.31,1.05
		c0.24,0.16,0.43,0.28,0.61,0.41c1.38,0.99,2.83,1.89,4.11,3c2.46,2.13,4.53,4.65,6.54,7.19c0.7,0.89,1.37,1.79,1.82,2.85
		c0.31,0.72,0.79,1.37,1.2,2.05c1.08,1.81,2.18,3.62,3.23,5.44c0.24,0.41,0.38,0.89,0.48,1.36c0.11,0.5,0.71,0.53,0.83,0.98
		c0.01,0.03,0.04,0.06,0.06,0.1c1.77,3.2,3.56,6.39,5.32,9.6c1.2,2.18,2.28,4.43,3.55,6.57C88.72,280.72,89.95,283.3,91.09,285.93z
		 M65.82,235.64c-0.17,0.12-0.77-0.18-1.05-0.42c-0.8-0.68-1.54-1.44-2.32-2.16c-1.33-1.22-2.66-2.44-4.02-3.64
		c-2.29-2.01-4.6-4-6.89-6.01c-0.95-0.84-1.87-1.7-2.99-2.72c2.32-0.1,4.33-0.09,6.3-0.32c1.53-0.18,2.65,0.46,3.83,1.25
		c2.3,1.55,4.05,3.7,6.07,5.55c0.5,0.46,0.99,0.86,0.99,1.64c0,0.25,0.28,0.52,0.45,0.76c0.89,1.26,1.79,2.51,2.67,3.77
		c0.62,0.89,0.27,1.75-0.8,1.78C67.26,235.14,66.52,235.13,65.82,235.64z"/>
	<path class="st0" d="M117.11,2.16c2.78,0.01,5.29,0.01,7.92,0.02c0.15,0.71,0.34,1.36,0.42,2.02c0.48,3.9,0.87,7.81,1.41,11.69
		c0.59,4.26,1.22,8.52,1.97,12.75c0.74,4.19,1.59,8.37,2.48,12.54c1.05,4.87,2.16,9.72,3.34,14.56c1.15,4.73,2.59,9.39,4.25,13.96
		c1.81,4.97,3.98,9.78,6.31,14.53c1.58,3.22,3.1,6.47,4.79,9.62c2.21,4.12,4.46,8.23,6.88,12.23c3.44,5.7,7.45,10.99,11.71,16.1
		c3.07,3.69,6.3,7.23,9.6,10.72c2.41,2.55,4.83,5.09,7.36,7.52c2.37,2.27,4.89,4.38,7.33,6.58c2.52,2.27,5.01,4.59,7.55,6.85
		c3.21,2.86,6.35,5.8,9.8,8.38c2.27,1.69,4.5,3.42,6.73,5.16c2.91,2.27,5.76,4.64,8.73,6.84c2.15,1.59,4.41,3.03,6.69,4.44
		c3.05,1.89,6.1,3.77,9.25,5.48c3.22,1.74,6.41,3.53,9.82,4.9c2.59,1.04,5.11,2.26,7.69,3.33c2.58,1.07,5.16,2.15,7.8,3.07
		c5.88,2.06,11.75,4.13,17.83,5.55c3.2,0.75,6.38,1.55,9.6,2.21c1.73,0.36,3.51,0.49,5.27,0.72c0.26,0.03,0.53-0.03,0.79-0.03
		c0.33,0.01,0.66,0.04,1.09,0.06c-0.02,1.73-0.05,3.3-0.07,4.99c-0.89,0.01-1.71,0.06-2.52,0.04c-2.11-0.05-4.23-0.06-6.33-0.22
		c-1.23-0.1-2.46-0.4-3.66-0.72c-4.12-1.1-8.27-2.13-12.33-3.42c-2.84-0.9-5.59-2.08-8.31-3.29c-3.52-1.57-6.98-3.25-10.43-4.95
		c-3.01-1.49-5.99-3.05-8.95-4.63c-3.96-2.12-7.91-4.24-11.81-6.47c-3.89-2.23-7.75-4.53-11.36-7.21c-2.06-1.53-4.23-2.91-6.3-4.43
		c-1.61-1.18-3.14-2.47-4.71-3.71c-1.75-1.38-3.54-2.7-5.23-4.15c-1.48-1.28-2.82-2.73-4.26-4.06c-2.85-2.64-5.73-5.25-8.58-7.89
		c-2.24-2.08-4.46-4.18-6.69-6.27c-1.73-1.62-3.47-3.24-5.21-4.86c-1.38-1.28-2.75-2.58-4.15-3.84c-2.35-2.12-4.77-4.16-7.08-6.33
		c-2.31-2.17-4.57-4.4-6.73-6.71c-2.01-2.15-3.86-4.45-5.76-6.7c-0.95-1.12-1.8-2.33-2.82-3.39c-0.72-0.75-1.28-1.6-1.88-2.44
		c-2.7-3.78-5.18-7.7-7.51-11.72c-2.48-4.27-4.83-8.62-6.92-13.1c-1.39-2.97-2.9-5.89-4.27-8.87c-0.56-1.22-1-2.52-1.33-3.83
		c-0.43-1.68-0.69-3.4-1.06-5.1c-0.16-0.73-0.38-1.46-0.6-2.18c-0.54-1.77-1.07-3.54-1.63-5.3c-0.84-2.66-1.69-5.32-2.53-7.98
		c-0.67-2.12-1.37-4.24-2.02-6.37c-0.95-3.13-1.96-6.25-2.74-9.43c-0.45-1.82-1.1-3.57-1.42-5.44c-0.32-1.82-1.23-3.53-1.87-5.29
		c-1.34-3.73-2.7-7.46-3.38-11.38c-0.51-2.94-0.86-5.9-1.24-8.86C117.56,6.46,117.36,4.44,117.11,2.16z M128.53,40.29
		c0.36-0.05,0.81,0.08,1.01-0.42C128.94,39.44,128.87,40.23,128.53,40.29z"/>
	<path class="st0" d="M151.05,337.37c-0.67-6.29-2-12.36-3.71-18.43c0.37-0.09,0.61-0.19,0.85-0.21c5.58-0.26,11.15-0.58,16.69-1.34
		c4.11-0.56,8.27-0.73,12.41-1.08c6.28-0.52,12.57-0.94,18.84-1.57c8.22-0.82,16.43-1.79,24.65-2.71
		c5.81-0.65,11.62-1.34,17.43-1.99c4.39-0.49,8.78-0.91,13.16-1.41c4.5-0.52,8.99-1.11,13.48-1.66c2.32-0.28,4.64-0.56,6.97-0.83
		c0.2-0.02,0.41,0.05,0.88,0.12c-0.78,0.68-1.4,1.19-1.99,1.73c-0.64,0.58-1.25,1.19-1.89,1.77c-0.62,0.55-1.24,1.09-1.89,1.61
		c-2.47,1.99-4.92,4.01-7.65,5.64c-3.07,1.83-6.28,3.26-9.95,3.37c-6.48,0.19-12.85,0.2-19.34,0.12c-2.18-0.03-4.36-0.04-6.54-0.11
		c-3.38-0.11-7.19,0.21-10.47-0.14c-2.93-0.31-5.82-0.37-8.74,0.19c-2.81,0.54-5.67,0.86-8.49,1.33c-1.18,0.2-2.34,0.5-3.49,0.83
		c-4.81,1.4-9.3,3.63-14.02,5.29c-3.31,1.17-6.6,2.38-9.88,3.62c-4.09,1.54-8.16,3.14-12.25,4.67
		C154.53,336.8,152.94,337.4,151.05,337.37z"/>
	<path class="st0" d="M261.19,347.08c3.59-1.22,7.37-2.49,10.82-4.6c0.76-0.46,1.66-0.7,2.48-1.07c0.26-0.12,0.52-0.3,0.72-0.51
		c4.87-5.31,9.36-10.93,13.51-16.81c2.28-3.23,4.67-6.39,6.95-9.63c1.26-1.78,2.4-3.65,3.6-5.47c0.24-0.37,0.52-0.71,0.91-1.24
		c0.07,0.44,0.14,0.64,0.14,0.85c-0.09,9.36-0.2,18.72-0.26,28.09c-0.01,0.95-0.3,1.45-1.19,1.74c-0.49,0.16-0.93,0.49-1.37,0.77
		c-0.3,0.19-0.54,0.26-0.7-0.09c-2.02,1.79-4.05,3.56-6.06,5.38c-2.48,2.25-4.94,4.53-7.4,6.8c-2.27,2.1-4.54,4.2-6.77,6.34
		c-1,0.96-1.9,2.03-2.88,3.02c-0.49,0.5-1.07,0.92-1.56,1.42c-2.08,2.13-4.14,4.27-6.2,6.43c-0.34,0.35-0.65,0.49-1.18,0.45
		c-2.06-0.19-4.14-0.31-6.21-0.41c-1.02-0.05-2.04,0.01-3.05,0.01c-0.21,0-0.42-0.08-0.68-0.14c0.02-0.37,0.05-0.68,0.08-1.21
		c-0.42,0.28-0.74,0.41-0.95,0.64c-0.61,0.66-1.13,1.4-1.77,2.04c-0.29,0.29-0.76,0.53-1.16,0.56c-2.23,0.14-4.41,0.57-6.58,1.03
		c-0.7,0.15-1.37,0.39-2.06,0.56c-0.56,0.14-1.1,0.5-1.83,0.19c3.54-4.14,7.24-8.03,10.69-12.13
		C254.71,355.95,257.52,351.35,261.19,347.08z"/>
	<path class="st0" d="M94.59,254.72c1.83,3.04,3.51,6.16,5.26,9.25c0.09,0.16,0.25,0.38,0.2,0.51c-0.33,0.85,0.25,1.44,0.58,2.1
		c1.68,3.38,3.4,6.73,5.08,10.11c2.1,4.22,3.71,8.64,5.41,13.03c0.86,2.21,1.62,4.47,2.36,6.72c1.57,4.77,3.12,9.54,4.63,14.33
		c1.49,4.71,3,9.42,4.35,14.17c1.31,4.61,2.47,9.26,3.34,13.98c0.58,3.18,1.25,6.34,1.88,9.51c1.09-0.08,2.18-0.14,3.27-0.18
		c-0.36-3.22-0.88-6.42-1.4-9.61c-0.34-2.08-0.71-4.18-1.29-6.2c-1.5-5.26-3.11-10.49-4.71-15.72c-1.66-5.45-3.26-10.92-5.08-16.32
		c-1.43-4.25-3.06-8.43-4.75-12.58c-1.64-4.06-3.41-8.07-5.23-12.04c-1.13-2.46-2.47-4.83-3.74-7.24c-0.67-1.27-1.47-2.47-2.05-3.77
		c-1.66-3.74-3.69-7.25-6.02-10.61c-1.57-2.26-3.06-4.58-4.48-6.94c-1.38-2.29-2.63-4.66-3.91-7.01c-0.46-0.85-0.76-1.8-1.27-2.62
		c-0.63-1.02-1.36-2-2.12-2.93c-1.79-2.19-3.63-4.34-5.45-6.51c-1.21-1.44-2.35-2.95-3.66-4.31c-1.72-1.8-3.55-3.49-5.37-5.19
		c-2.15-2.01-4.29-4.03-6.52-5.93c-1.23-1.05-2.65-1.87-3.99-2.78c-2.59-1.74-5.14-3.55-7.83-5.14c-2.23-1.32-4.53-2.51-6.91-3.56
		c-4.04-1.78-8.07-3.55-12.4-4.58c-3.74-0.89-7.41-2.11-11.1-3.21c-2.11-0.63-4.25-1.02-6.43-1.25c-3.49-0.36-6.99-0.67-10.48-1.05
		c-1.08-0.12-2.14-0.41-3.21-0.58c-0.99-0.15-1.97-0.43-3.03-0.24c-0.03,1.22-0.11,2.37,0.04,3.47c0.21,0.05,0.28,0.09,0.35,0.09
		c4.23-0.06,8.45,0.06,12.67,0.44c3.43,0.31,6.85,0.67,10.18,1.5c3.51,0.88,7.04,1.7,10.41,3.1c2.19,0.91,4.43,1.69,6.66,2.51
		c0.74,0.27,1.52,0.44,2.27,0.69c0.89,0.29,1.76,0.66,2.66,0.91c1.25,0.34,2.27,0.98,3.05,2.02c0.22,0.3,0.49,0.58,0.79,0.8
		c1.6,1.2,3.22,2.35,4.81,3.56c4.65,3.54,9.15,7.28,13.49,11.2c3.16,2.86,6.32,5.73,9.05,9.02c0.65,0.78,1.26,1.6,1.88,2.4
		c2.32,2.98,4.61,5.97,6.97,8.92c1.3,1.62,2.7,3.15,4.08,4.7C90.41,248.44,92.64,251.49,94.59,254.72z"/>
	<path class="st0" d="M298.56,295.12c-0.44,0.54-0.87,1.1-1.34,1.62c-2.67,2.97-5.33,5.95-8.04,8.9c-2.5,2.72-5.06,5.38-7.56,8.1
		c-2.6,2.83-5.1,5.76-7.74,8.56c-2.77,2.93-5.55,5.87-8.52,8.6c-1.88,1.72-4.01,3.23-6.21,4.53c-2.12,1.26-4.58,1.76-7.07,1.76
		c-1.43,0-2.87-0.13-4.29-0.29c-4.84-0.54-9.68-1.11-14.51-1.69c-3.75-0.45-7.51-0.84-11.24-1.4c-4.41-0.66-8.8-1.44-13.18-2.23
		c-1.54-0.27-3.06-0.4-4.62-0.24c-0.97,0.1-1.96,0.12-2.94,0.1c-1.39-0.03-2.69,0.31-3.96,0.82c-6.98,2.79-14.08,5.2-21.35,7.14
		c-2.66,0.71-5.25,1.66-7.85,2.57c-4.37,1.54-8.73,3.14-13.09,4.72c-0.77,0.28-1.51,0.61-2.39,0.97c-0.49-1.54-0.54-3.03-0.77-4.56
		c1.12-0.21,2.18-0.41,3.24-0.6c2.23-0.4,4.45-0.84,6.69-1.19c1.48-0.23,2.83-0.76,4.17-1.38c0.89-0.41,1.81-0.74,2.71-1.13
		c1.52-0.65,3.03-1.34,4.56-1.99c2.78-1.17,5.57-2.33,8.35-3.48c1.71-0.71,3.39-1.47,5.13-2.09c4.55-1.63,9.18-3.01,13.88-4.13
		c0.37-0.09,0.73-0.19,1.09-0.29c1.58-0.42,3.15-0.58,4.81-0.48c6.18,0.37,12.37,0.69,18.56,0.91c4.83,0.17,9.67,0.22,14.5,0.25
		c2.68,0.01,5.36-0.05,8.03-0.26c2.14-0.17,4.26-0.59,6.39-0.91c1.53-0.23,2.79-1.08,4.09-1.84c1.07-0.62,2.2-1.17,3.31-1.71
		c2.1-1.02,4.23-1.98,6.09-3.45c0.94-0.74,2.07-1.23,3.08-1.9c0.85-0.56,1.67-1.17,2.45-1.82c1.6-1.32,3.14-2.72,4.76-4.01
		c2.21-1.77,4.5-3.44,6.72-5.2c2.22-1.76,4.41-3.55,6.59-5.37c2.09-1.74,4.13-3.54,6.19-5.31c0.34-0.29,0.69-0.56,1.04-0.85
		C298.4,294.95,298.48,295.03,298.56,295.12z"/>
	<path class="st0" d="M210,340.43c0.37-0.16,0.73-0.34,1.11-0.47c2.18-0.74,4.35-1.5,6.26-2.84c0.26-0.19,0.72-0.22,1.05-0.17
		c3.72,0.61,7.45,1.24,11.16,1.88c1.56,0.27,3.11,0.64,4.67,0.87c2.17,0.31,4.34,0.56,6.52,0.78c2.14,0.21,4.29,0.32,6.44,0.5
		c0.49,0.04,0.99,0.08,1.44,0.24c0.87,0.32,1.75,0.27,2.66,0.3c3.33,0.13,6.17-1.24,8.96-2.76c1.68-0.92,3.35-1.9,4.76-3.24
		c1.72-1.63,3.43-3.29,5.14-4.94c0.62-0.6,1.19-1.27,1.86-1.82c1.41-1.16,2.52-2.58,3.71-3.95c1.7-1.96,3.5-3.84,5.28-5.74
		c1.34-1.43,2.71-2.84,4.07-4.24c0.45-0.46,0.94-0.87,1.39-1.33c0.79-0.8,1.55-1.64,2.37-2.42c0.61-0.58,1.07-1.25,1.54-1.94
		c0.63-0.93,1.4-1.79,2.19-2.59c1.96-1.96,3.47-4.26,5.1-6.47c0.85-1.15,1.68-2.31,2.67-3.68c0.06,0.51,0.13,0.8,0.13,1.1
		c-0.02,2.27-0.08,4.53-0.06,6.8c0.01,0.89-0.33,1.5-1.01,2.02c-0.78,0.59-1.53,1.22-2.3,1.83c-1.77,1.41-3.41,2.97-4.91,4.68
		c-1.44,1.64-3.01,3.18-4.41,4.85c-1.42,1.71-2.79,3.47-4.03,5.31c-2.97,4.37-5.86,8.79-8.76,13.21c-0.51,0.77-1.16,1.3-1.94,1.8
		c-2.95,1.88-6.1,3.31-9.4,4.37c-1.89,0.61-3.88,0.93-5.84,1.36c-3.81,0.84-7.67,1.31-11.54,1.64c-2.48,0.21-4.97,0.39-7.46,0.49
		c-4.86,0.2-9.63-0.25-14.35-1.57c-4.43-1.24-8.95-2.18-13.43-3.26c-0.35-0.08-0.7-0.19-1.05-0.28
		C210.01,340.65,210,340.54,210,340.43z"/>
	<path class="st0" d="M195.72,383.41c-0.19-0.24-0.51-0.66-0.85-1.05c-2.64-3.01-5.37-5.92-8.27-8.68c-1.83-1.75-3.55-3.6-5.32-5.41
		c-1.61-1.64-3.22-3.28-4.85-4.9c-1.76-1.76-3.5-3.54-5.33-5.23c-1.66-1.53-3.41-2.96-5.12-4.44c-0.27-0.24-0.53-0.49-0.85-0.81
		c0.24-0.14,0.35-0.26,0.48-0.28c1.33-0.23,2.68-0.41,4-0.68c0.57-0.12,1.01,0,1.29,0.44c0.75,1.21,1.94,1.99,2.89,3
		c1.7,1.81,3.5,3.52,5.3,5.24c1.76,1.69,3.57,3.33,5.34,5.01c0.93,0.88,1.79,1.84,2.71,2.73c1.3,1.26,2.62,2.49,3.93,3.73
		c0.19,0.18,0.46,0.35,0.52,0.57c0.28,1.04,1.2,1.51,1.87,2.2c0.47,0.49,0.96,0.97,1.3,1.54c0.29,0.51,0.65,0.82,1.19,0.95
		c1.03,0.25,2.03,0.51,2.87,1.24c0.26,0.23,0.78,0.27,1.17,0.24c2.33-0.21,4.65-0.47,6.98-0.7c2.63-0.26,5.26-0.46,7.88-0.76
		c1.64-0.19,3.27-0.51,4.91-0.77c1.26-0.2,2.54-0.35,3.79-0.62c0.73-0.16,1.42-0.49,2.13-0.75c0.38-0.14,0.76-0.31,1.14-0.48
		c0.17-0.07,0.37-0.11,0.5-0.24c2.59-2.59,5-5.33,7.06-8.35c0.8-1.17,1.85-2.08,2.84-3.05c1.78-1.74,3.6-3.44,5.39-5.16
		c1.3-1.26,2.63-2.49,3.87-3.81c1.56-1.64,3.04-3.34,4.57-5c0.17-0.18,0.42-0.35,0.65-0.39c2.08-0.37,4.16-0.72,6.24-1.06
		c0.06-0.01,0.13,0.05,0.34,0.14c-0.31,0.39-0.57,0.78-0.9,1.1c-2.51,2.45-5.07,4.85-7.55,7.33c-3.15,3.14-6.22,6.36-9.36,9.52
		c-1.89,1.9-3.81,3.77-5.75,5.61c-1.68,1.59-3.08,3.41-4.5,5.22c-1.14,1.45-2.24,2.94-3.38,4.39c-0.17,0.21-0.47,0.39-0.73,0.44
		c-3.16,0.56-6.32,1.09-9.48,1.61c-0.82,0.13-1.65,0.18-2.48,0.26c-0.41,0.04-0.86,0-1.23,0.14c-1.45,0.55-2.9,0.15-4.36,0.11
		c-1.92-0.05-3.84-0.09-5.76-0.16c-1.05-0.04-2.1-0.17-3.16-0.18C198.4,383.25,197.21,383.34,195.72,383.41z"/>
	<path class="st0" d="M117.88,50.75c-1.74-5.92-3.36-11.88-4.93-17.84c-2.68-10.16-5.5-20.1-6.77-30.58
		c1.04-0.13,2.1-0.17,3.15-0.12c0.21,0.01,0.42,0.03,0.6,0.14c0.31,0.19,0.39,0.6,0.44,0.96c1.4,9.87,3.1,19.7,5.09,29.47
		c0.4,1.96,0.81,3.92,1.28,5.87c1.95,8.11,4.84,16.03,7.33,23.99c2,6.37,4.26,12.64,7.21,18.65c1.91,3.89,3.67,7.86,5.5,11.79
		c0.96,2.05,1.87,4.12,2.9,6.14c1.22,2.38,2.54,4.71,3.84,7.05c1.17,2.11,2.34,4.22,3.54,6.31c1.5,2.63,3.4,4.97,5.42,7.21
		c1.75,1.93,3.49,3.86,5.24,5.79c0.47,0.52,0.95,1.05,1.58,1.75c-0.48,0.08-0.74,0.17-1.01,0.16c-2.68-0.04-5.36-0.13-8.03-0.13
		c-0.75,0-1.16-0.26-1.52-0.89c-1.97-3.49-3.77-7.05-5.32-10.75c-2.95-7.03-6.07-13.99-9.06-21.01c-3.11-7.29-6.21-14.59-9.19-21.94
		c-1.4-3.46-2.54-7.03-3.71-10.57C120.19,58.4,119.01,54.58,117.88,50.75z"/>
	<path class="st0" d="M205.14,338.77c0.03,0.1,0.07,0.23,0.15,0.46c-1,0.29-1.99,0.62-3,0.87c-6.27,1.54-12.55,3.03-18.8,4.61
		c-3.69,0.93-7.38,1.92-11.03,2.99c-1.95,0.57-3.85,1.32-5.74,2.08c-0.79,0.32-1.49,0.89-2.21,1.37c-0.32,0.21-0.64,0.34-0.91,0.02
		c-0.64-0.74-1.24-1.51-1.84-2.28c-0.08-0.1-0.05-0.28-0.08-0.49c0.29-0.12,0.55-0.26,0.83-0.35c2.82-0.96,5.64-1.92,8.47-2.85
		c2.65-0.88,5.32-1.68,7.96-2.6c4.3-1.51,8.6-3.03,12.86-4.66c2-0.76,3.93-1.74,5.85-2.69c1.11-0.55,2.28-0.81,3.48-0.87
		c2.49-0.12,4.96-0.06,7.41,0.64c1.59,0.46,3.25,0.63,4.88,0.95c1.29,0.25,2.57,0.53,3.85,0.79c0,0.1,0.01,0.2,0.01,0.3
		c-0.37,0.1-0.74,0.28-1.11,0.28c-1.26-0.01-2.46,0.23-3.69,0.51c-1.84,0.42-3.7,0.73-5.57,1.02
		C206.34,338.95,205.73,338.81,205.14,338.77z"/>
	<path class="st0" d="M212.16,342.02c-2.8,0.16-5.46,0.31-8.27,0.47c0.28-0.15,0.44-0.27,0.62-0.33c1.32-0.43,2.64-0.84,3.96-1.28
		c0.49-0.16,0.91-0.2,1.39,0.06C210.56,341.34,211.32,341.64,212.16,342.02z"/>
	<path class="st0" d="M296.75,340.78c-0.1,0.25-0.13,0.43-0.21,0.46c-0.1,0.04-0.25-0.05-0.38-0.08c0.03-0.1,0.02-0.25,0.09-0.29
		C296.35,340.82,296.49,340.83,296.75,340.78z"/>
	<path class="st0" d="M284.32,311.7c0.03,0.11,0.08,0.22,0.07,0.23c-0.08,0.05-0.18,0.08-0.27,0.11c-0.02-0.06-0.08-0.17-0.06-0.19
		C284.13,311.79,284.22,311.75,284.32,311.7z"/>
	<path class="st0" d="M254.65,369.82c-0.1,0.09-0.17,0.21-0.23,0.2c-0.09-0.01-0.16-0.11-0.24-0.16c0.06-0.08,0.11-0.21,0.17-0.21
		C254.43,369.64,254.52,369.74,254.65,369.82z"/>
</g>
<g>
	<path class="st0" d="M434.93,434.88c-0.03-0.85,0.04-1.7,0.06-2.58c0.38,0.02,0.62,0.03,0.88,0.05c0.01-0.76-0.45-0.74-0.93-0.64
		c-0.08-1.19-0.06-1.23,0.76-1.05c0-0.91,0-1.81,0-2.7c0-0.38-0.13-0.66-0.57-0.7c-0.04,0-0.07-0.1-0.1-0.15
		c0.22-0.15,0.44-0.3,0.65-0.44c-0.02-0.05-0.05-0.1-0.07-0.14c-0.2,0.04-0.4,0.07-0.67,0.12c-0.05-0.37-0.14-0.73-0.15-1.1
		c-0.01-0.82,0.05-1.64,0.01-2.46c-0.04-0.9-0.19-1.79-0.24-2.69c-0.06-1.13,0.04-2.27-0.1-3.39c-0.14-1.14,0.18-2.23,0.09-3.36
		c-0.2-2.32-0.21-4.66-0.39-6.99c-0.24-3.12-0.54-6.24-0.88-9.35c-0.5-4.65-1.05-9.29-1.59-13.93c-0.09-0.82-0.21-1.64-0.34-2.46
		c-0.32-2.16-0.65-4.31-0.98-6.47c-0.11-0.71-0.15-1.43-0.33-2.12c-0.27-1.06-0.66-2.08-0.94-3.14c-0.91-3.39-1.79-6.78-2.7-10.17
		c-0.31-1.16-0.81-2.3-0.96-3.48c-0.16-1.23-0.64-2.32-1.06-3.44c-0.13-0.35-0.25-0.71-0.33-1.08c-3.08-14.01-9.17-24.74-9.78-26.19
		c-1.12-2.64-2.15-5.32-3.19-7.99c-0.19-0.48-0.19-1.04-0.4-1.51c-0.86-1.88-1.77-3.73-2.64-5.61c-0.3-0.65-0.45-1.38-0.8-1.99
		c-1.14-2.03-2.35-4.03-3.51-6.04c-0.66-1.14-1.3-2.28-1.92-3.43c-0.72-1.32-1.33-2.71-2.14-3.97c-0.92-1.46-1.98-2.83-3.02-4.21
		c-2.47-3.27-4.69-6.75-7.82-9.49c-1.01-0.89-1.88-1.95-2.89-2.84c-1.47-1.29-3.05-2.44-4.5-3.75c-1.3-1.18-2.48-2.51-3.72-3.76
		c-1.4-1.42-2.8-2.85-4.22-4.26c-0.45-0.45-0.94-0.86-1.4-1.29c-1.11-1.04-2.5-1.67-3.74-2.51c-2.09-1.42-4.15-2.89-6.19-4.38
		c-1.4-1.02-2.76-2.09-4.15-3.12c-0.33-0.25-0.72-0.41-1.07-0.64c-2.44-1.57-4.82-3.23-7.32-4.7c-2.56-1.51-5.18-2.91-7.84-4.22
		c-2.91-1.43-5.87-2.76-8.85-4.03c-5.03-2.15-10.09-4.22-15.15-6.31c-3.07-1.27-6.21-2.37-9.48-2.99c-3.52-0.67-7.04-1.3-10.56-1.95
		c-1.74-0.32-3.46-0.73-5.21-0.94c-2.17-0.26-4.35-0.36-6.53-0.53c0.25,4.06,0.49,8.12,0.74,12.19c0.45-0.23,1.02-0.29,1.67-0.05
		c9.09,3.31,18.03,5.14,26.5,10.37c43.56,26.85,44,44.95,45.27,46.44c0.56,0.66,1.1,1.33,1.68,1.98c2.35,2.63,4.12,5.67,6.07,8.58
		c1.36,2.03,2.8,4.02,4.14,6.07c1.08,1.64,2.09,3.32,3.1,5c1.14,1.9,2.27,3.81,3.33,5.75c1.3,2.38,2.55,4.8,3.78,7.21
		c1.15,2.25,2.25,4.52,3.36,6.78c2.18,4.48,4.06,9.09,5.7,13.79c1.04,2.99,2.03,6,2.9,9.04c0.7,2.46,1.15,4.99,1.74,7.48
		c0.56,2.35,1.19,4.68,1.73,7.03c0.4,1.73,0.69,3.48,1.05,5.21c0.62,3.03,1.29,6.05,1.87,9.08c0.34,1.78,0.55,3.58,0.85,5.36
		c0.29,1.75,0.63,3.49,0.92,5.23c0.72,4.31,1.57,8.61,2.09,12.95c0.55,4.57,0.82,9.17,1.13,13.76c0.12,1.76,0.03,3.55-0.02,5.32
		c-0.1,3.39-0.24,6.78-0.36,10.18c-0.03,0.83-0.01,1.66-0.01,2.48c10.03-0.61,20.07-1.21,30.1-1.82c-0.03-0.07-0.08-0.14-0.08-0.21
		C435.15,440.69,435.02,437.78,434.93,434.88z"/>
	<path class="st0" d="M377.03,265.89c2.52,2.17,5.06,4.3,7.55,6.5c0.8,0.71,1.53,1.22,2.6,0.61c0.12-0.07,0.29-0.06,0.45-0.07
		c1.58-0.09,3.15-0.21,4.73-0.24c2.94-0.07,5.89-0.01,8.82-0.15c2.56-0.12,5.11-0.45,7.66-0.68c2.66-0.24,5.32-0.5,7.99-0.67
		c2.18-0.13,4.37-0.12,6.55-0.21c1.32-0.05,2.63-0.16,3.95-0.22c2.45-0.11,4.9-0.22,7.35-0.31c1.84-0.07,3.69-0.11,5.53-0.19
		c1.31-0.05,2.62-0.2,3.94-0.21c3.43-0.02,6.85,0.01,10.28,0.01c0.68,0,1.36-0.03,2.03-0.03c1.81,0,3.62,0.02,5.42,0
		c2.11-0.02,4.22-0.11,6.34-0.12c3.2-0.01,6.4,0.05,9.6,0.01c4.23-0.04,8.45-0.16,12.68-0.21c1.73-0.02,3.47,0.09,5.2,0.08
		c2.46-0.01,4.89,0.14,7.31,0.61c0.36,0.07,0.74,0.16,0.68,0.58c-0.03,0.21-0.38,0.47-0.62,0.52c-1.14,0.24-2.28,0.46-3.44,0.58
		c-1.08,0.11-2.18,0.06-3.27,0.13c-1.69,0.11-3.37,0.31-5.06,0.4c-1.31,0.07-2.64,0-3.95,0.05c-2.49,0.1-4.97,0.26-7.46,0.34
		c-3.21,0.11-6.42,0.16-9.62,0.24c-0.34,0.01-0.68,0-1.02,0c-2.41,0.01-4.83,0-7.24,0.04c-2.49,0.04-4.98,0.16-7.47,0.19
		c-3.5,0.05-7.01,0.05-10.51,0.08c-2.33,0.02-4.67,0.07-7,0.08c-2.15,0.01-4.3-0.06-6.45-0.02c-3.09,0.07-6.17,0.21-9.25,0.31
		c-0.75,0.03-1.51,0.07-2.26,0.07c-1.54-0.01-3.09-0.07-4.63-0.05c-2.86,0.04-5.73,0.14-8.59,0.19c-2.56,0.04-5.13,0.03-7.69,0.08
		c-2.45,0.05-4.9,0.14-7.36,0.23c-0.79,0.03-1.59,0.06-2.38,0.13c-0.23,0.02-0.45,0.16-0.88,0.32c0.58,0.51,1.02,0.91,1.46,1.29
		c1.68,1.46,3.23,3.06,4.65,4.79c0.38,0.46,0.78,0.6,1.38,0.52c2.24-0.32,4.48-0.68,6.74-0.83c6.1-0.42,12.21-0.75,18.32-1.1
		c2.75-0.16,5.51-0.35,8.26-0.41c3.69-0.08,7.39-0.04,11.09-0.04c0.19,0,0.38,0.01,0.57,0.01c2.3,0.07,4.59,0.16,6.89,0.2
		c2.83,0.05,5.65,0.04,8.48,0.08c3.2,0.05,6.41,0.14,9.61,0.17c1.81,0.02,3.61-0.11,5.42-0.1c3.17,0.02,6.34,0.02,9.5,0.18
		c3.06,0.15,6.12,0.48,9.18,0.74c-2.51,0.33-5.02,0.57-7.53,0.78c-2.45,0.2-4.89,0.4-7.34,0.55c-1.58,0.1-3.16,0.09-4.74,0.17
		c-2.23,0.11-4.45,0.31-6.67,0.39c-3.13,0.12-6.26,0.17-9.39,0.24c-3.02,0.07-6.04,0.19-9.06,0.2c-3.81,0-7.62-0.12-11.43-0.13
		c-3.32-0.01-6.64,0.09-9.96,0.12c-1.89,0.02-3.77,0.01-5.66,0.01c-2.9-0.01-5.81-0.11-8.71-0.01c-3.74,0.12-7.47,0.38-11.2,0.6
		c-0.43,0.03-0.92-0.01-1.19,0.52c0.06,0.13,0.1,0.28,0.18,0.4c1.16,1.58,2.3,3.16,3.5,4.71c1.34,1.73,2.56,3.54,3.52,5.51
		c0.25,0.51,0.63,0.59,1.13,0.39c0.35-0.14,0.71-0.27,1.07-0.32c3.48-0.44,6.95-0.98,10.45-1.26c2.66-0.21,5.35-0.11,8.03-0.12
		c2.94-0.02,5.88-0.01,8.82,0c1.2,0,2.41,0.02,3.61,0.05c2.45,0.05,4.9,0.12,7.35,0.17c1.32,0.03,2.64,0.01,3.95,0.03
		c1.54,0.03,3.09,0.1,4.63,0.11c1.77,0.02,3.54,0,5.31-0.02c1.36-0.01,2.72,0.03,4.07-0.09c2.74-0.26,5.47-0.59,8.2-0.93
		c1.87-0.23,3.72-0.55,5.59-0.76c2.58-0.29,5.17-0.52,7.76-0.78c3.19-0.32,6.38-0.65,9.57-0.94c3.34-0.31,6.69-0.66,10.04-0.84
		c3.26-0.18,6.52-0.19,9.79-0.22c1.91-0.01,3.83,0.07,5.74,0.14c1.78,0.07,3.52,0.38,5.22,0.9c0.51,0.16,1.08,0.39,1.1,1.24
		c-0.37,0.12-0.74,0.31-1.14,0.37c-2.23,0.3-4.46,0.57-6.69,0.86c-2.05,0.26-4.12,0.16-6.18,0.35c-5.26,0.5-10.53,0.79-15.8,1.18
		c-0.81,0.06-1.61,0.2-2.64,0.32c0.33,0.18,0.45,0.26,0.57,0.31c1.7,0.72,3.41,1.42,5.11,2.14c1.8,0.77,3.58,1.59,5.39,2.35
		c1.32,0.55,2.71,0.96,4.01,1.56c2.6,1.19,5.17,2.46,7.75,3.69c4.69,2.24,9.39,4.46,14.07,6.72c0.87,0.42,1.66,0.65,2.51,0.02
		c0.24-0.17,0.54-0.27,0.83-0.35c2.6-0.76,5.27-0.9,7.95-0.82c0.92,0.03,1.84,0.08,2.74-0.18c-1.86-0.67-3.89-0.62-5.87-1.47
		c1.98-0.8,3.88-1.2,5.84-1.25c2.11-0.05,4.21-0.16,6.28-0.6c0.84-0.17,1.72-0.3,2.57-0.25c2.08,0.13,4.14,0.06,6.19-0.37
		c0.59-0.12,1.2-0.13,1.81-0.12c1.13,0.02,2.26,0.11,3.39,0.11c0.38,0,0.94-0.11,1.11-0.37c0.76-1.14,1.87-1.86,2.9-2.66
		c1.01-0.78,2.07-1.5,3.1-2.25c0.93-0.68,2.17-0.93,2.81-2.02c0.03-0.06,0.12-0.09,0.18-0.12c1.53-0.65,2.83-1.67,4.13-2.68
		c0.59-0.46,1.18-0.8,1.94-0.8l-0.31-5.09c-0.7-0.14-1.36-0.6-1.75-1.45c0-0.01,0-0.01-0.01-0.02c-0.02,0.03-0.05,0.06-0.07,0.09
		c0.3,0.38,0.52,0.67,0.89,1.14c-0.42,0-0.81,0.06-0.83-0.01c-0.32-0.85-0.97-1.28-1.78-1.55c-0.09-0.03-0.17-0.17-0.19-0.27
		c-0.13-0.6-0.6-0.81-1.08-1.05c-0.33-0.17-0.66-0.39-0.9-0.67c-0.71-0.85-1.58-1.5-2.44-2.17c-1.64-1.27-3.22-2.61-4.81-3.93
		c-1.57-1.29-3.13-2.59-4.69-3.89c-1.21-1.01-2.39-2.07-3.65-3.02c-1.25-0.95-2.28-2.14-3.59-3.03c-1.52-1.03-2.9-2.3-4.25-3.55
		c-1.83-1.69-3.52-3.53-5.37-5.18c-2.4-2.13-4.9-4.13-7.35-6.2c-1.15-0.97-2.3-1.95-3.42-2.96c-0.17-0.15-0.22-0.45-0.29-0.62
		c-0.54-0.32-1.1-0.61-1.61-0.98c-0.7-0.49-1.31-1.13-2.04-1.55c-0.74-0.42-1.5-0.74-1.47-1.9c-0.56,0.12-1.05,0.17-1.48,0.34
		c-2.13,0.86-4.23,1.79-6.37,2.62c-4.15,1.6-8.31,3.15-12.47,4.7c-2.08,0.78-4.21,1.45-6.25,2.31c-3.65,1.53-7.25,3.15-10.86,4.76
		c-0.68,0.3-1.29,0.75-1.94,1.14c-0.45,0.27-0.87,0.59-1.35,0.79c-0.83,0.35-1.69,0.65-2.55,0.93c-3.4,1.12-6.79,2.25-10.21,3.33
		c-1.13,0.36-2.28,0.75-3.68,0.62c2.13-2.34,4.51-4.21,6.77-6.27c-0.49-0.11-0.92-0.11-1.35-0.08c-1.77,0.12-3.53,0.26-5.3,0.37
		c-4.22,0.25-8.44,0.48-12.67,0.7c-4.22,0.22-8.44,0.43-12.67,0.65c-2.14,0.11-4.29,0.25-6.43,0.32c-4.3,0.15-8.6,0.29-12.9,0.39
		c-1.7,0.04-3.39,0.01-5.09-0.02c-1.66-0.03-3.32-0.14-4.97-0.16c-1.89-0.02-3.77,0.02-5.66,0.06c-3.47,0.08-6.94,0.2-10.41,0.29
		c-3.47,0.09-6.94,0.21-10.42,0.23c-2.22,0.01-4.45-0.16-6.67-0.23c-2.26-0.07-4.52-0.12-6.79-0.16c-0.23,0-0.46,0.11-0.86,0.22
		C376.47,265.32,376.73,265.63,377.03,265.89z M521.25,273.48c0.25-0.53,0.43-1.12,0.55-1.7c0.61-3.08,1.51-6.07,2.53-9.03
		c0.33-0.95,0.63-1.9,1.01-2.84c-0.27,2.29-0.99,4.52-1.13,6.82c0.1,0.04,0.2,0.07,0.3,0.11c0.24-0.34,0.49-0.68,0.73-1.02
		c0.03,0.01,0.05,0.01,0.08,0.02c-0.26,0.6-0.45,1.23-0.78,1.78c-1.08,1.8-1.75,3.73-2.16,5.79c-0.4,1.97-1.03,3.9-1.63,5.82
		c-0.2-1.04,0.47-2.04,0.04-3.24c-0.87,0.8-1.01,1.86-1.52,2.7c-0.53,0.86-0.95,1.78-1.42,2.68l-0.3-0.16
		C518.78,278.64,520.03,276.07,521.25,273.48z M511.18,277.97c0.86,0.22,1.71,0.45,2.59,0.67c-0.02,0.08-0.03,0.12-0.04,0.17
		c-0.86-0.21-1.73-0.43-2.59-0.64C511.15,278.1,511.16,278.03,511.18,277.97z"/>
	<path class="st0" d="M388.23,51.27c0.11,0.24,0.22,0.48,0.27,0.74c0.28,1.48,0.55,2.96,0.8,4.45c0.31,1.86,0.59,3.73,0.88,5.59
		c0.32,2.13,0.59,4.26,0.97,6.38c0.45,2.49,1.05,4.94,1.47,7.43c0.7,4.17,1.46,8.32,2.77,12.35c0.33,1,0.79,1.95,1.09,2.95
		c0.9,3.07,1.75,6.16,2.62,9.24c0.56,1.96,1.06,3.94,1.73,5.86c1.19,3.41,2.49,6.79,3.75,10.18c1.35,3.6,2.93,7.1,4.62,10.56
		c0.92,1.9,1.83,3.81,2.79,5.69c0.52,1.01,1.16,1.94,1.71,2.93c1.13,2.04,2.19,4.12,3.37,6.13c1.84,3.12,3.72,6.22,5.66,9.28
		c1.15,1.82,2.41,3.56,3.65,5.31c1.68,2.37,3.37,4.72,5.08,7.07c0.62,0.85,1.47,1.56,1.94,2.48c1.54,3.03,3.82,5.49,5.93,8.08
		c1.76,2.16,3.7,4.18,5.59,6.22c1.01,1.09,1.79,2.4,3.13,3.18c0.41,0.23,0.7,0.68,1.03,1.04c0.43,0.47,0.81,0.99,1.28,1.41
		c1.83,1.68,3.69,3.32,5.54,4.99c0.52,0.47,0.98,1,1.52,1.45c1.21,1.01,2.45,1.99,3.68,2.99c2.31,1.87,4.62,3.75,6.95,5.61
		c1.68,1.34,3.35,2.7,5.09,3.96c1.83,1.32,3.74,2.54,5.64,3.77c3.29,2.13,6.58,4.26,9.92,6.31c1.79,1.1,3.68,2.06,5.52,3.08
		c1.52,0.84,3.01,1.73,4.55,2.53c1.47,0.76,2.98,1.44,4.48,2.15c1.25,0.6,2.51,1.18,3.75,1.79c1.08,0.53,2.12,1.14,3.21,1.62
		c1.72,0.76,3.5,1.37,5.21,2.16c2.9,1.34,5.75,2.77,8.63,4.15c1.32,0.64,2.68,1.22,3.99,1.87c2.4,1.19,4.91,2.08,7.42,2.99
		c1.98,0.72,3.95,1.46,5.91,2.23c2,0.79,3.95,1.67,5.97,2.41c1.98,0.73,3.95,1.47,6,2.02c3.32,0.88,6.58,1.97,9.86,2.96
		c0.79,0.24,1.58,0.5,2.39,0.69c2.72,0.62,5.45,1.2,8.17,1.8c0.81,0.18,1.45,0.58,1.59,1.46c0.27,0.06,0.52,0.12,0.77,0.18
		c0.31-0.05,0.63-0.05,0.94,0.01l-0.71-11.78c-0.69-0.04-1.38-0.07-2.07-0.13c-0.71-0.06-1.43-0.07-2.11-0.25
		c-1.86-0.49-3.7-1.03-5.53-1.61c-1.3-0.41-2.64-0.61-3.94-0.95c-1.69-0.45-3.47-0.7-4.98-1.7c-0.05-0.03-0.14-0.02-0.22-0.01
		c-1.05,0.07-1.97-0.24-2.81-0.89c-0.21-0.16-0.56-0.14-0.85-0.18c-0.33-0.05-0.69-0.01-1-0.11c-1.72-0.56-3.43-1.14-5.14-1.73
		c-0.04-0.01-0.04-0.11-0.06-0.15c0.08-0.08,0.15-0.15,0.33-0.33c-0.95,0.03-1.7-0.14-2.48-0.48c-0.61-0.26-1.15-0.72-1.85-0.81
		c-0.37-0.05-0.75-0.11-1.09-0.26c-0.89-0.4-1.75-0.87-2.65-1.26c-1.04-0.45-2.16-0.75-3.13-1.3c-0.48-0.27-0.96-0.15-1.42-0.4
		c-1.34-0.72-2.72-1.35-4.1-1.98c-0.39-0.18-0.83-0.23-1.22-0.41c-0.99-0.46-1.96-0.97-2.95-1.46c-0.17-0.08-0.35-0.2-0.52-0.19
		c-1.01,0.05-1.74-0.53-2.5-1.06c-0.15-0.11-0.33-0.25-0.49-0.24c-0.76,0.06-1.38-0.3-2.02-0.58c-0.75-0.33-1.48-0.71-2.24-1.03
		c-0.98-0.41-2.01-0.72-2.97-1.17c-1.5-0.71-2.97-1.49-4.52-2.13c-1.56-0.64-3.03-1.51-4.55-2.25c-2.61-1.27-5.22-2.52-7.83-3.8
		c-1.76-0.86-3.54-1.69-5.26-2.62c-1.7-0.93-3.37-1.94-5.01-2.97c-1.72-1.08-3.4-2.22-5.08-3.36c-1.73-1.18-3.52-2.27-5.17-3.6
		c-3.05-2.45-6.29-4.65-9.33-7.1c-3.2-2.58-6.35-5.22-9.36-8.02c-2.82-2.62-5.5-5.39-8.09-8.24c-1.95-2.15-3.69-4.49-5.46-6.79
		c-1.66-2.15-3.28-4.33-4.85-6.55c-1.33-1.88-2.55-3.84-3.83-5.74c-0.72-1.06-1.55-2.05-2.19-3.16c-1.49-2.58-3.03-5.13-4.78-7.55
		c-1.7-2.36-3.34-4.76-4.66-7.35c-1.73-3.4-3.45-6.79-5.11-10.22c-1.26-2.61-2.52-5.23-3.6-7.92c-1.24-3.08-2.25-6.24-3.41-9.35
		c-0.92-2.46-1.17-5.06-1.78-7.58c-0.32-1.36-0.59-2.73-0.89-4.09c-0.41-1.84-0.89-3.67-1.24-5.52c-0.41-2.14-0.77-4.29-1.37-6.4
		c-1.05-3.65-1.98-7.34-2.95-11.02c-0.16-0.62-0.31-1.24-0.42-1.87c-0.35-2.01-0.68-4.01-1.02-6.02c-0.42-2.49-0.83-4.97-1.24-7.46
		c-0.22-1.34-0.51-2.67-0.63-4.02c-0.18-1.93-0.65-3.87-0.17-5.8c-0.37-0.49-0.85-0.58-1.4-0.64c-1.12-0.13-1.94,0.48-2.79,1
		c-0.2,0.12-0.31,0.59-0.28,0.88c0.21,1.99,0.44,3.98,0.71,5.96c0.55,3.96,1.14,7.92,1.72,11.88c0.09,0.6,0.2,1.2,0.38,1.77
		c0.68,2.18,1.52,4.33,2.08,6.54c1.19,4.67,2.25,9.38,3.34,14.08c0.35,1.5,0.64,3.02,0.99,4.53c0.23,0.99,0.54,1.96,0.8,2.95
		c0.68,2.59,1.27,5.2,2.05,7.75c1.16,3.78,2.37,7.55,3.85,11.23c1.88,4.66,3.91,9.23,6.31,13.65c0.59,1.09,1.21,2.17,1.81,3.26
		c1.32,2.42,2.52,4.91,3.96,7.25c2.7,4.4,5.52,8.73,8.32,13.08c1.04,1.62,2.17,3.17,3.25,4.77c0.57,0.84,1.11,1.7,1.64,2.56
		c0.33,0.54,0.57,1.15,0.94,1.66c0.72,1.02,1.49,2,2.24,2.99c0.89,1.17,1.79,2.33,2.67,3.5c0.34,0.45,0.6,0.96,0.94,1.4
		c1.38,1.79,2.84,3.52,4.47,5.1c2.08,2.02,4.02,4.18,6.13,6.18c2.43,2.31,4.97,4.51,7.47,6.74c1.18,1.05,2.45,2,3.55,3.14
		c1.89,1.95,3.96,3.71,6.09,5.37c3.23,2.53,6.61,4.87,9.93,7.29c0.09,0.07,0.18,0.13,0.28,0.19c1.63,0.94,3.28,1.85,4.89,2.82
		c2.05,1.24,4.08,2.52,6.27,3.51c2.67,1.21,5.3,2.51,7.95,3.76c1.56,0.74,3.14,1.46,4.7,2.19c2.22,1.03,4.44,2.05,6.65,3.11
		c2.1,1.01,4.17,2.12,6.28,3.1c2.39,1.11,4.82,2.13,7.22,3.2c1.09,0.49,2.18,0.99,3.26,1.51c0.78,0.38,1.5,0.9,2.31,1.17
		c1.35,0.46,2.75,0.8,4.14,1.12c2.88,0.66,5.64,1.66,8.36,2.78c0.45,0.19,0.9,0.37,1.35,0.56c1.4,0.58,2.89,0.82,4.35,1.19
		c2.37,0.59,4.7,1.33,7.05,2.01c0.44,0.13,0.87,0.24,1.31,0.35c1.2,0.31,2.44,0.54,3.6,0.95c3.02,1.06,6.07,2.04,9.21,2.67
		c0.75,0.15,1.49,0.21,1.64,1.2c0.04,0.25,0.41,0.44,0.55,0.7c0.15,0.27,0.31,0.62,0.26,0.89c-0.03,0.14-0.49,0.22-0.76,0.31
		c-0.1,0.03-0.23,0.02-0.34,0.01c-3.04-0.17-6.11-0.04-9.02-1.19c-0.52-0.21-1.08-0.39-1.63-0.42c-2.1-0.12-4.07-0.87-6.13-1.22
		c-1.01-0.17-2.05-0.41-3.04-0.73c-2.82-0.9-5.83-1.22-8.49-2.65c-0.76-0.41-1.64-0.6-2.37-1.06c-0.72-0.45-1.4-0.9-2.23-1.09
		c-0.04-0.01-0.07-0.03-0.1-0.05c-0.68-0.64-1.54-0.92-2.4-1.21c-0.28-0.1-0.64-0.17-0.82-0.37c-0.87-1.03-2.26-0.97-3.32-1.67
		c-1.54-1.02-3.33-1.67-4.99-2.53c-0.72-0.38-1.32-0.98-2.04-1.36c-1.69-0.89-3.42-1.71-5.13-2.58c-0.6-0.3-1.14-0.85-1.76-0.96
		c-1.37-0.25-2.4-1.17-3.67-1.61c-1.12-0.39-2.13-1.1-3.21-1.63c-0.9-0.44-1.83-0.83-2.76-1.22c-1.7-0.71-3.41-1.39-5.11-2.09
		c-1.53-0.63-3.06-1.26-4.58-1.93c-1.41-0.63-2.77-1.37-4.2-1.96c-3.83-1.59-7.58-3.36-11.11-5.55c-1.57-0.97-3.19-1.86-4.71-2.9
		c-1.55-1.06-2.99-2.3-4.52-3.38c-3.49-2.46-6.71-5.26-9.88-8.1c-2.42-2.16-4.77-4.4-7.16-6.6c-1.61-1.48-3.31-2.88-4.83-4.44
		c-1.87-1.92-3.61-3.96-5.39-5.96c-2.68-3.03-5.36-6.04-7.99-9.11c-2.28-2.67-4.49-5.4-6.7-8.13c-1.57-1.93-3.13-3.88-4.62-5.87
		c-0.88-1.17-1.59-2.47-2.68-3.49c-0.35-0.32-0.52-0.83-0.79-1.24c-0.41-0.63-0.81-1.28-1.27-1.87c-1.27-1.63-2.68-3.17-3.85-4.87
		c-1.52-2.2-2.91-4.5-4.24-6.82c-0.56-0.97-1.38-1.93-1.07-3.23c0.02-0.1-0.04-0.22-0.08-0.32c-0.43-0.97-0.84-1.94-1.29-2.9
		c-1.02-2.19-2.13-4.34-3.07-6.56c-1.06-2.5-1.98-5.05-2.97-7.58c-0.22-0.56-0.48-1.11-0.66-1.69c-1.14-3.67-2.33-7.34-3.38-11.03
		c-0.68-2.39-1.16-4.84-1.74-7.25c-0.11-0.47-0.24-0.95-0.42-1.4c-1.16-2.92-2.04-5.91-2.51-9.02c-0.17-1.14-0.53-2.26-0.79-3.39
		c-0.17-0.73-0.44-1.47-0.43-2.21c0-1.15-0.23-2.23-0.49-3.33c-0.38-1.61-0.65-3.25-0.93-4.88c-0.58-3.46-1.17-6.91-1.7-10.38
		c-0.35-2.27-0.6-4.56-0.87-6.85c-0.12-1-0.23-2.01-0.27-3.02c-0.02-0.59,0.11-1.18,0.17-1.64c-0.94-1.08-2.08-0.93-3.2-0.86
		c-0.75,0.04-1.51,0.08-2.26,0.13c-0.26,0.02-0.53,0.03-0.78,0.1C388.07,50.22,387.92,50.59,388.23,51.27z"/>
	<path class="st0" d="M438.3,443.62c0-1.09-0.01-2.18-0.01-3.27c0.01-2.07,0.02-4.15,0.04-6.22c0.03-2.3,0.11-4.59,0.11-6.89
		c-0.01-3.05-0.07-6.11-0.12-9.16c-0.03-1.55-0.04-3.09-0.14-4.63c-0.21-3.27-0.46-6.54-0.73-9.81c-0.29-3.57-0.58-7.15-0.96-10.71
		c-0.32-3.04-0.67-6.08-1.18-9.09c-0.62-3.68-1.31-7.35-2.18-10.98c-1.02-4.25-2.28-8.44-3.4-12.66c-0.52-1.97-0.92-3.97-1.46-5.93
		c-0.78-2.8-1.6-5.58-2.47-8.35c-0.93-2.94-1.89-5.88-2.94-8.78c-0.93-2.59-2-5.13-3.01-7.69c-0.21-0.52-0.44-1.03-0.71-1.67
		c3.59-1.21,7.17-2.16,10.75-3.63c0.66,0.47,1.48-0.08,2.27-0.32c1.55-0.47,3.05-1.15,4.59-1.67c0.91-0.31,1.9-0.41,2.79-0.75
		c1.19-0.46,2.44-0.79,3.51-1.58c0.38-0.28,1.08-0.08,1.58-0.26c3.09-1.09,6.17-2.21,9.25-3.34c1.69-0.62,3.38-1.25,5.07-1.9
		c0.54-0.21,0.83-0.04,1.08,0.45c0.45,0.87,0.84,1.81,1.46,2.54c0.77,0.9,1.17,1.96,1.73,2.96c1.3,2.34,2.62,4.66,4.18,6.85
		c0.54,0.76,1.05,1.55,1.52,2.36c0.61,1.05,1.17,2.14,1.8,3.29c-0.3,0.24-0.57,0.49-0.87,0.71c-10.01,7.18-19.71,14.77-29.32,22.47
		c-1.86,1.49-3.7,3-5.54,4.5c-0.23,0.19-0.44,0.42-0.68,0.6c-0.51,0.37-0.52,0.83-0.38,1.4c1.37,5.65,2.76,11.29,4.06,16.96
		c0.33,1.43,0.44,2.91,0.56,4.38c0.91,11.83,1.8,23.66,2.69,35.48c0.61,8.02,1.22,16.05,1.83,24.07
		C441.47,443.43,439.88,443.52,438.3,443.62z"/>
	<path class="st0" d="M398.23,446.04c-0.18-3.47-0.32-6.94-0.56-10.41c-0.4-5.73-0.83-11.45-1.31-17.17
		c-0.28-3.35-0.62-6.7-1.08-10.03c-0.3-2.2-0.84-4.37-1.33-6.54c-1.22-5.45-2.38-10.92-3.71-16.34c-1.73-7.04-3.51-14.07-5.44-21.05
		c-0.96-3.48-2.29-6.87-3.52-10.28c-1.59-4.4-3.16-8.81-4.9-13.16c-1.29-3.22-2.69-6.42-4.31-9.48c-1.9-3.6-4-7.11-6.2-10.54
		c-2.81-4.39-5.71-8.72-8.73-12.96c-1.95-2.73-4.18-5.26-6.31-7.86c-1.24-1.52-2.42-3.11-3.81-4.49c-3-2.98-6.13-5.83-9.56-8.32
		c-0.55-0.4-1.14-0.76-1.76-1.02c-3.88-1.67-7.75-3.39-11.68-4.95c-6.31-2.51-12.69-4.85-19.21-6.79
		c-5.31-1.58-10.73-2.45-16.18-3.26c-0.11-1.81-0.22-3.62-0.33-5.43c1.76,0.21,3.53,0.33,5.27,0.64c3.67,0.66,7.34,1.35,10.98,2.15
		c2.42,0.53,4.81,1.22,7.2,1.9c3.16,0.89,6.35,1.69,9.44,2.77c4.16,1.46,8.26,3.11,12.07,5.35c2.5,1.47,4.94,3.05,7.29,4.75
		c2.23,1.61,4.29,3.44,6.43,5.17c0.14,0.12,0.26,0.27,0.38,0.41c1.09,1.2,2.17,2.41,3.28,3.58c2.88,3.04,5.64,6.17,8.27,9.42
		c0.66,0.82,1.38,1.59,2.04,2.4c1.44,1.78,2.88,3.56,4.28,5.37c1.27,1.64,2.55,3.27,3.72,4.98c0.95,1.4,1.74,2.9,2.61,4.36
		c1.21,2.04,2.48,4.05,3.64,6.11c0.97,1.74,2.17,3.34,2.97,5.19c0.41,0.96,1.15,1.78,1.53,2.74c1.07,2.7,2.85,5.04,3.86,7.77
		c0.48,1.3,1.27,2.49,1.66,3.81c0.54,1.83,1.46,3.51,1.88,5.39c0.29,1.28,0.69,2.57,1.25,3.75c0.57,1.2,0.76,2.47,1.07,3.72
		c0.57,2.3,1.2,4.59,1.77,6.89c0.26,1.06,0.43,2.14,0.65,3.22c0.21,1.03,0.66,1.99,0.74,3.06c0.07,0.97,0.23,1.96,0.54,2.88
		c0.32,0.94,0.12,2.07,0.95,2.84c0.04,0.04,0.05,0.14,0.04,0.21c-0.17,0.95,0.16,1.84,0.33,2.74c0.34,1.77,0.71,3.53,1.05,5.31
		c0.31,1.67,0.7,3.33,0.85,5.02c0.14,1.51,1,2.79,0.96,4.38c-0.04,1.47,0.51,2.95,0.82,4.43c0.37,1.76,0.82,3.51,1.15,5.28
		c0.3,1.58,0.44,3.2,0.76,4.78c0.39,1.97,0.47,3.97,0.76,5.96c0.43,2.9,0.46,5.86,0.9,8.76c0.52,3.37,0.19,6.73,0.15,10.1
		c-0.02,1.35-0.25,2.69-0.38,4.03c-0.06,0.67-0.14,1.35-0.17,2.02c-0.09,1.92-0.16,3.84-0.25,5.76c-0.01,0.18-0.08,0.37-0.12,0.55
		C400.05,445.93,399.14,445.99,398.23,446.04z"/>
	<path class="st0" d="M576.3,238.78c-0.35-0.14-0.7-0.28-1.1-0.44c0.05-0.23,0.1-0.44,0.17-0.71c-0.64-0.45-1.4-0.67-2.17-0.8
		c-1.03-0.18-2.09-0.19-3.12-0.38c-1.55-0.3-3.09-0.69-4.63-1.04c-1.07-0.25-2.15-0.35-3.26-0.2c-0.41,0.06-0.9-0.06-1.28-0.24
		c-1.36-0.64-2.68-1.38-4.05-1.99c-1.58-0.7-3.21-1.29-4.82-1.92c-1.89-0.75-3.77-1.5-5.67-2.24c-2.32-0.9-4.64-1.78-6.96-2.68
		c-1.12-0.43-2.23-0.89-3.34-1.33c-1.85-0.73-3.66-1.58-5.56-2.13c-2.47-0.72-4.64-2.14-7.08-2.89c-3.14-0.97-6.11-2.36-9.14-3.62
		c-1-0.42-2.13-0.54-3.12-0.99c-1.89-0.85-3.72-1.82-5.56-2.78c-1.89-0.99-3.77-2.02-5.63-3.07c-0.65-0.37-1.22-0.89-1.86-1.27
		c-1.75-1.02-3.55-1.96-5.29-3c-1.49-0.89-2.9-1.9-4.37-2.82c-1.43-0.9-2.91-1.73-4.34-2.63c-0.89-0.56-1.74-1.19-2.62-1.78
		c-2.39-1.59-4.53-3.49-6.71-5.35c-1.75-1.49-3.58-2.88-5.4-4.28c-2.89-2.23-5.84-4.39-8.45-6.97c-1.55-1.54-3.22-2.96-4.75-4.52
		c-1.45-1.48-2.82-3.04-4.18-4.6c-0.94-1.08-1.89-2.16-2.73-3.32c-1.83-2.54-3.62-5.11-5.36-7.71c-1.5-2.26-2.91-4.58-4.34-6.89
		c-1.75-2.82-3.41-5.7-5.23-8.47c-3.33-5.06-6.03-10.45-8.52-15.95c-1.21-2.68-2.57-5.3-3.73-8c-1.86-4.33-3.86-8.61-5.12-13.18
		c-0.41-1.49-0.81-2.98-1.15-4.48c-0.11-0.51-0.38-1.08,0.11-1.61c0.09-0.1-0.02-0.42-0.08-0.62c-0.14-0.46-0.32-0.91-0.45-1.38
		c-0.86-2.89-1.74-5.78-2.56-8.68c-1.05-3.7-2.13-7.4-3.04-11.13c-0.94-3.85-1.76-7.72-2.52-11.61c-0.67-3.48-1.26-6.98-1.73-10.49
		c-0.34-2.54-0.43-5.12-0.64-7.68c-0.03-0.42,0.18-0.63,0.47-0.93c0.91-0.89,2-0.96,3.15-0.91c1.04,0.05,1.31,0.44,1.38,1.49
		c0.16,2.41,0.35,4.81,0.6,7.21c0.26,2.48,0.55,4.95,0.93,7.41c0.56,3.61,1.03,7.25,1.89,10.79c1.02,4.2,1.92,8.45,3.46,12.53
		c0.84,2.21,1.45,4.52,2.07,6.81c0.4,1.49,0.59,3.04,0.96,4.53c0.69,2.78,1.44,5.55,2.17,8.32c1.17,4.42,2.8,8.68,4.36,12.97
		c1.91,5.25,4.08,10.39,6.71,15.33c3.01,5.66,6.09,11.28,9.43,16.76c1.87,3.06,3.81,6.07,5.95,8.94c1.28,1.73,2.65,3.39,4.03,5.03
		c2.18,2.6,4.4,5.18,6.63,7.74c1.14,1.31,2.27,2.63,3.54,3.81c1.43,1.33,3,2.52,4.51,3.75c1.37,1.12,2.74,2.25,4.14,3.35
		c2.07,1.63,4.15,3.25,6.24,4.85c1.74,1.33,3.45,2.7,5.26,3.92c2.59,1.75,5.23,3.43,7.9,5.05c2.06,1.24,4.19,2.39,6.33,3.49
		c1.71,0.87,3.49,1.59,5.24,2.4c1.71,0.79,3.4,1.62,5.11,2.41c0.75,0.35,1.52,0.65,2.28,0.97c2.86,1.18,5.76,2.25,8.56,3.55
		c2.98,1.38,6.08,2.42,9.14,3.55c2.57,0.95,5.22,1.7,7.83,2.54c0.25,0.08,0.49,0.2,0.73,0.3c1.14,0.49,2.27,0.95,3.48,1.27
		c2.37,0.64,4.7,1.45,7.06,2.15c0.71,0.21,1.48,0.22,2.18,0.47c1.8,0.64,3.66,1.08,5.5,1.58c1.57,0.42,3.15,0.67,4.75,0.83
		c0.4,0.04,0.77,0.3,1.17,0.39c1.97,0.44,3.92,1.09,5.99,0.77c0.11-0.02,0.24-0.03,0.33,0.01c1.75,0.84,3.68,0.64,5.53,0.95
		c0.66,0.11,1.35,0.02,2.02-0.03c0.35-0.03,0.68-0.16,1.07-0.26c0.16-0.25,0.35-0.57,0.55-0.88
		C575.79,230.33,576.04,234.56,576.3,238.78z M563.68,230.76c2.53,1.15,5.26,1.21,7.86,1.85c0.58,0.14,1.2,0.13,1.8,0.15
		c0.23,0.01,0.47-0.08,0.92-0.16c-0.84-0.47-1.44-1.04-2.12-1.15c-2.19-0.36-4.4-0.57-6.6-0.79
		C564.93,230.61,564.3,230.73,563.68,230.76z"/>
	<path class="st0" d="M575.44,224.52c-0.15-0.03-0.34,0-0.44-0.09c-1.34-1.18-3.03-1.19-4.65-1.42c-0.3-0.04-0.6-0.08-0.89-0.15
		c-3.48-0.84-7.02-1.4-10.57-1.87c-0.89-0.12-1.75-0.4-2.64-0.58c-1.47-0.3-2.94-0.65-4.43-0.86c-5.2-0.74-10.3-1.86-15.29-3.52
		c-3.61-1.2-7.26-2.28-10.87-3.51c-2.39-0.81-4.7-1.84-7.08-2.7c-3.4-1.23-6.84-2.35-10.24-3.58c-1.98-0.72-3.96-1.47-5.86-2.38
		c-2.38-1.14-4.7-2.4-7-3.7c-3.01-1.71-5.96-3.54-8.97-5.27c-3.26-1.87-6.17-4.2-9.06-6.57c-1.58-1.29-3.21-2.51-4.78-3.81
		c-2.7-2.24-5.43-4.46-8.03-6.81c-1.62-1.46-3.09-3.11-4.51-4.77c-2.88-3.34-5.75-6.7-8.51-10.14c-1.48-1.85-2.76-3.87-4.07-5.85
		c-2.17-3.27-4.37-6.53-6.41-9.88c-1.86-3.06-3.53-6.24-5.24-9.38c-0.76-1.39-1.45-2.82-2.09-4.27c-1.07-2.45-2.1-4.92-3.1-7.4
		c-0.81-1.99-1.55-4.01-2.31-6.02c-0.99-2.61-1.92-5.24-2.97-7.83c-1.24-3.05-2.21-6.17-3.06-9.34c-0.57-2.11-1.3-4.18-1.92-6.27
		c-0.78-2.64-1.52-5.3-2.27-7.95c-0.55-1.92-1.14-3.83-1.64-5.77c-0.56-2.19-1.09-4.4-1.55-6.61c-0.66-3.22-1.16-6.47-1.89-9.67
		c-0.39-1.7-0.34-3.43-0.61-5.14c-0.48-3.02-0.72-6.07-1.06-9.11c-0.04-0.37-0.09-0.75-0.17-1.12c-0.19-0.89-0.21-0.9,0.53-1.37
		c1.04-0.66,2.1-1.03,3.28-0.28c0.27,0.17,0.65,0.17,0.98,0.24c0.78,0.15,1.26,0.73,1.14,1.51c-0.31,1.91-0.39,3.82-0.19,5.75
		c0.07,0.63-0.06,1.27,0,1.9c0.19,2.14,0.37,4.28,0.66,6.4c0.31,2.23,0.75,4.45,1.15,6.67c0.35,1.96,0.69,3.92,1.11,5.87
		c0.24,1.13,0.66,2.23,0.95,3.36c0.12,0.46,0.13,0.96,0.18,1.44c0.16,1.53,0.31,3.05,0.9,4.51c0.39,0.97,0.69,1.99,0.94,3.01
		c0.29,1.17,0.53,2.33,1.08,3.43c0.42,0.83,0.67,1.78,0.8,2.7c0.17,1.3,0.69,2.47,1.14,3.66c1.08,2.82,2.23,5.61,3.34,8.41
		c0.85,2.13,1.71,4.26,2.51,6.42c0.34,0.91,0.49,1.89,0.81,2.81c0.43,1.24,0.96,2.45,1.43,3.68c0.31,0.81,0.55,1.64,0.9,2.44
		c0.68,1.55,1.41,3.09,2.13,4.63c2.28,4.88,4.55,9.77,6.88,14.62c0.73,1.53,1.65,2.96,2.49,4.44c1.05,1.87,2.09,3.76,3.17,5.62
		c1,1.72,1.98,3.45,3.36,4.94c1.02,1.1,1.79,2.42,2.71,3.62c2.17,2.86,4.51,5.56,7,8.15c1.54,1.61,2.99,3.29,4.53,4.9
		c2.61,2.73,5.39,5.28,8.4,7.57c2.04,1.55,3.99,3.22,6.03,4.76c1.05,0.79,2.21,1.44,3.32,2.15c2.32,1.48,4.61,3.02,6.98,4.41
		c2.14,1.25,4.31,2.45,6.53,3.57c3.98,2.01,8.09,3.7,12.14,5.52c1.2,0.54,2.46,0.94,3.69,1.41c1.02,0.39,2.02,0.82,3.05,1.19
		c4.54,1.65,9.06,3.34,13.63,4.9c1.56,0.53,3.24,0.72,4.86,1.07c0.59,0.13,1.18,0.24,1.76,0.42c2.44,0.75,4.86,1.56,7.32,2.26
		c2.17,0.62,4.35,1.23,6.57,1.67c1.83,0.36,3.6,0.93,5.42,1.28c0.4,0.08,0.78,0.26,1.17,0.38c0.5,0.15,1,0.33,1.51,0.43
		c0.64,0.12,1.28,0.26,1.91,0.4c0.86,0.2,1.71,0.47,2.59,0.63c1.67,0.29,3.34,0.57,5.02,0.77c0.99,0.12,2.01,0.08,3.01,0.11
		c0.23,0.01,0.48-0.09,0.67-0.02c0.86,0.32,1.63,0.09,2.39-0.28C575.23,221.05,575.33,222.79,575.44,224.52z"/>
	<path class="st0" d="M525.33,160.82c2.03,1.07,4.1,2.07,6.08,3.21c2.09,1.2,4.11,2.52,6.14,3.82c1.84,1.18,3.66,2.4,5.46,3.64
		c1.5,1.04,3.18,1.8,4.56,3.01c0.06,0.05,0.15,0.13,0.19,0.11c1.06-0.42,1,0.34,1.37,1.01c0.52,0.95,1.05,1.98,2.04,2.64
		c0.62,0.41,1.12,1,1.69,1.49c1.08,0.93,2.16,1.87,3.28,2.77c0.97,0.78,2.01,1.47,2.95,2.26c1.17,0.99,2.28,2.05,3.42,3.08
		c0.78,0.7,1.57,1.39,2.35,2.09c0.9,0.8,1.76,1.65,2.69,2.4c1.61,1.3,3.2,2.62,4.56,4.19c0.61,0.71,1.19,1.44,1.78,2.17l-2.96-48.95
		c-0.29,0.05-0.58,0.1-0.86,0.14c-0.06,0.12-0.16,0.23-0.3,0.33c-0.39,0.28-0.78,0.57-1.17,0.85c-1.31,0.94-2.87,1.3-4.37,1.76
		c-2.55,0.78-5.16,1.37-7.69,2.2c-2.74,0.9-5.7,0.97-8.35,2.2c-0.1,0.05-0.22,0.03-0.33,0.06c-1.4,0.28-2.79,0.56-4.19,0.84
		c-0.15,0.03-0.3,0.04-0.44,0.06c-0.74,0.09-1.48,0.2-2.22,0.27c-1.44,0.13-2.82,0.38-4.2,0.9c-1.07,0.4-2.36,0.09-3.46,0.64
		c-0.1,0.05-0.22,0.02-0.33,0.05c-0.48,0.12-0.97,0.25-1.44,0.37c-0.1-0.06-0.26-0.26-0.42-0.25c-0.53,0.02-1.05,0.14-1.57,0.17
		c-1.42,0.09-2.84,0.35-4.24-0.17c-0.18-0.07-0.43,0.06-0.65,0.1C524.88,160.59,525.11,160.7,525.33,160.82z"/>
	<path class="st0" d="M309.77,227.39c3.55,0.84,7.08,1.74,10.52,2.99c2.51,0.92,5.04,1.8,7.55,2.73c2.54,0.95,5.06,1.94,7.59,2.92
		c0.7,0.27,1.43,0.51,2.07,0.88c0.63,0.36,1.22,0.5,1.93,0.38c1.78-0.3,3.57-0.61,5.36-0.81c0.96-0.11,1.95-0.02,2.93,0.03
		c2.62,0.15,5.12-0.7,7.71-0.85c2.48-0.15,4.93-0.58,7.42-0.59c4.04-0.03,8.07-0.14,12.11-0.21c0.98-0.02,1.96,0.03,2.94,0.05
		c2.11,0.04,4.22,0.08,6.34,0.12c2.82,0.05,5.64,0.12,8.46,0.14c2.03,0.01,4.07-0.06,6.1-0.05c1.39,0,2.79,0.08,4.18,0.11
		c2.18,0.05,4.37,0.04,6.55,0.15c2.67,0.14,5.34,0.39,8.01,0.57c1.99,0.13,3.99,0.22,5.98,0.3c2.45,0.1,4.9,0.17,7.35,0.25
		c1.28,0.04,2.56,0.04,3.84,0.08c3.53,0.12,7.04,0.54,10.58,0.25c2.25-0.19,4.52-0.11,6.78-0.1c3.95,0.02,7.91-0.04,11.84,0.49
		c0.31,0.04,0.62,0.12,0.93,0.18c-0.21,0.26-0.41,0.34-0.62,0.35c-2.3,0.14-4.6,0.31-6.9,0.39c-4.26,0.15-8.53,0.26-12.79,0.37
		c-2.11,0.05-4.23,0.08-6.34,0.1c-2.22,0.01-4.45-0.01-6.67-0.01c-1.74,0-3.47,0.05-5.21,0.02c-2.11-0.04-4.22-0.17-6.33-0.21
		c-3.24-0.06-6.49-0.1-9.73-0.08c-4.27,0.02-8.53,0.07-12.8,0.17c-2.72,0.07-5.43,0.3-8.15,0.41c-3.2,0.12-6.41,0.28-9.62,0.24
		c-3.09-0.04-6.17-0.31-9.26-0.48c-3.77-0.21-7.53-0.45-11.3-0.62c-3.17-0.15-6.33-0.3-9.5-0.3c-3.01-0.01-6.03,0.24-9.04-0.07
		c-0.14-0.01-0.3,0.13-0.54,0.25c0.25,0.18,0.39,0.3,0.55,0.38c2.15,1.09,4.34,2.12,6.44,3.29c1.84,1.03,3.61,2.18,5.34,3.38
		c0.62,0.43,1.11,0.63,1.85,0.36c0.66-0.24,1.39-0.36,2.1-0.4c2.18-0.13,4.36-0.18,6.54-0.28c1.36-0.07,2.71-0.19,4.06-0.27
		c3.02-0.17,6.04-0.31,9.05-0.48c2.9-0.16,5.81-0.38,8.71-0.48c3.84-0.14,7.69-0.19,11.54-0.27c0.75-0.02,1.51,0.02,2.26,0.01
		c1.46-0.03,2.92-0.06,4.39-0.14c1.24-0.06,2.48-0.21,3.72-0.26c1.54-0.06,3.08-0.05,4.62-0.09c2.94-0.09,5.88-0.19,8.83-0.29
		c0.15,0,0.3,0,0.45,0c1.81,0.03,3.61,0.06,5.42,0.09c0.3,0.01,0.6-0.01,0.91,0c2.26,0.08,4.52,0.16,6.78,0.24
		c1.2,0.04,2.41,0.05,3.61,0.13c1.69,0.12,3.37,0.37,5.06,0.42c1.84,0.06,3.69-0.07,5.54-0.08c3.47-0.01,6.94-0.02,10.41,0.02
		c3.68,0.05,7.37,0.09,11.28,0.57c-2.9,0.18-5.55,0.36-8.2,0.49c-1.89,0.09-3.78,0.1-5.66,0.12c-4.08,0.04-8.15,0.05-12.23,0.08
		c-1.77,0.01-3.55,0.06-5.32,0.05c-3.09-0.01-6.19-0.08-9.28-0.06c-3.21,0.02-6.42,0.11-9.63,0.2c-2,0.05-4,0.18-6,0.22
		c-3.85,0.07-7.7,0.02-11.55,0.16c-4.79,0.18-9.57,0.47-14.36,0.76c-2.34,0.14-4.66,0.42-7,0.59c-2.56,0.19-5.12,0.38-7.69,0.49
		c-5.24,0.22-10.49,0.39-15.74,0.59c-0.23,0.01-0.47,0.11-0.9,0.22c0.46,0.39,0.77,0.65,1.08,0.9c0.41,0.33,0.83,0.66,1.23,1
		c1.07,0.9,2.11,1.83,3.2,2.7c0.23,0.19,0.61,0.31,0.91,0.27c2.57-0.31,5.13-0.69,7.74-0.62c0.86,0.02,1.73-0.08,2.6-0.15
		c1.87-0.14,3.75-0.3,5.62-0.42c1.99-0.12,3.99-0.18,5.98-0.3c1.32-0.08,2.62-0.29,3.94-0.37c1.69-0.1,3.39-0.12,5.09-0.18
		c6.53-0.25,13.05-0.54,19.58-0.74c3.01-0.09,6.04,0,9.05,0c1.73,0,3.46-0.06,5.2-0.03c3.05,0.05,6.09,0.18,9.14,0.23
		c2.6,0.04,5.19,0.03,7.79,0.01c3.2-0.02,6.41-0.08,9.61-0.12c1.58-0.02,3.16-0.05,4.75-0.05c2.48,0,4.97,0.01,7.45,0.02
		c0.17,0,0.35,0.07,0.52,0.1c-0.62,0.23-1.22,0.26-1.82,0.3c-3.28,0.23-6.55,0.49-9.83,0.7c-3.01,0.2-6.02,0.19-9.03,0.4
		c-5.01,0.36-10.02,0.59-15.04,0.87c-3.13,0.18-6.26,0.33-9.38,0.52c-2.86,0.17-5.71,0.4-8.57,0.57c-2.11,0.12-4.22,0.21-6.33,0.28
		c-4.08,0.15-8.15,0.31-12.23,0.42c-1.7,0.05-3.4,0.03-5.1,0.01c-2.56-0.03-5.13-0.09-7.69-0.12c-1.62-0.02-3.24,0.02-4.86,0.02
		c-3.74,0-7.48-0.01-11.2,0.32c-0.34,0.03-0.68,0.17-1.05,0.26c0.09,0.25,0.09,0.4,0.17,0.45c1.22,0.83,2.26,1.86,3.35,2.83
		c1.77,1.58,3.7,2.97,5.54,4.46c0.4,0.33,0.8,0.32,1.26,0.28c1.72-0.17,3.44-0.34,5.17-0.44c1.58-0.09,3.16-0.08,4.74-0.14
		c1.24-0.05,2.47-0.19,3.71-0.23c5.17-0.15,10.34-0.29,15.51-0.42c4.71-0.12,9.41-0.25,14.12,0.03c1.91,0.11,3.84-0.06,5.76-0.1
		c0.49-0.01,0.98-0.03,1.47-0.03c2.15-0.01,4.3,0.08,6.44-0.05c3.2-0.2,6.39-0.36,9.6-0.38c2.79-0.02,5.58-0.15,8.37-0.24
		c3.99-0.12,7.98-0.24,11.98-0.35c3.58-0.1,7.17-0.19,10.75-0.29c1.58-0.04,3.17-0.09,4.75-0.15c1.31-0.05,2.62-0.15,3.93-0.19
		c0.59-0.02,1.1-0.13,1.58-0.5c0.95-0.73,1.92-1.44,2.9-2.13c1.15-0.81,2.42-1.46,3.41-2.5c0.13-0.13,0.3-0.23,0.47-0.31
		c0.76-0.36,1.71-0.44,2.11-1.36c0.02-0.05,0.12-0.09,0.19-0.11c1.31-0.38,2.41-1.17,3.6-1.95c-0.25-0.26-0.46-0.52-0.7-0.73
		c-2.05-1.83-4.12-3.64-6.17-5.47c-1.12-1-2.23-2.01-3.3-3.06c-0.98-0.97-1.77-2.17-2.86-2.95c-1.03-0.74-1.81-1.73-2.84-2.47
		c-1.12-0.8-2.01-1.96-3.18-2.67c-1.26-0.77-2.35-1.68-3.38-2.7c-0.12-0.12-0.25-0.24-0.38-0.35c-0.88-0.69-1.8-1.34-2.63-2.08
		c-0.68-0.59-1.31-0.96-2.3-0.9c-1.91,0.12-3.86,0.18-5.76,0.01c-1.85-0.17-3.69,0.01-5.53-0.03c-1.58-0.04-3.16-0.17-4.64-0.81
		c-0.06-0.03-0.1-0.1-0.15-0.15c0.07-0.13,0.13-0.25,0.23-0.44c-0.64-0.41-1.26-0.84-1.91-1.2c-2.39-1.35-4.81-2.65-7.2-4.02
		c-0.5-0.29-0.87-0.81-1.37-1.12c-0.5-0.31-1.12-0.44-1.63-0.73c-2.2-1.28-4.38-2.61-6.58-3.89c-1.63-0.94-3.28-1.84-4.95-2.72
		c-1.8-0.95-3.61-1.89-5.46-2.74c-1.31-0.6-2.64-1.12-3.78-2.03c-0.26-0.16-0.51-0.33-0.74-0.51c-0.22-0.1-0.44-0.15-0.61-0.1
		c-1.66,0.5-3.37,0.36-5.05,0.54c-2.69,0.28-5.37,0.83-8.1,0.64c-1.2-0.08-2.41-0.12-3.61-0.26c-0.32-0.04-0.6-0.35-0.9-0.54
		c-0.33-0.36-0.67-0.71-1-1.07c-2.95-3.33-5.87-6.68-8.85-9.99c-2.04-2.27-3.98-4.61-5.65-7.18c-0.65-0.99-1.52-1.9-2.96-1.24
		c-0.16,0.07-0.37,0.05-0.56,0.06c-3.46,0.31-6.92,0.63-10.37,0.94c-0.68,0.06-1.36,0.09-2.03,0.17c-2.25,0.26-4.49,0.53-6.74,0.81
		c-1.27,0.16-2.54,0.31-3.81,0.51c-1,0.16-1.98,0.45-2.99,0.57c-1.75,0.21-3.52,0.36-5.28,0.48c-0.75,0.05-1.5-0.05-2.25-0.04
		c-1.69,0.03-3.39,0.13-5.08,0.12c-1.16-0.01-2.35-0.06-3.48-0.3c-1.1-0.23-2.01,0.08-2.25,1.28c-0.42,0.24-0.86,0.4-1.19,0.68
		c-1.04,0.87-2.01,1.83-3.07,2.67c-0.56,0.44-0.98,0.88-0.95,1.4c-0.74,0.46-1.39,0.77-1.92,1.22c-1.62,1.4-3.18,2.85-4.77,4.28
		c-2.5,2.25-5,4.48-7.49,6.73c-0.98,0.88-2.07,1.69-2.88,2.71c-0.78,0.98-1.66,1.73-2.79,2.22c-0.48,0.21-0.81,0.54-0.94,1.06
		c-0.52,1.96-1.05,3.93-1.57,5.89c-0.05,0.18-0.09,0.37-0.1,0.56c-0.07,1.32-0.15,2.63-0.2,3.95
		C308.51,226.86,308.71,227.13,309.77,227.39z M420.02,215.23c3.38,2.26,6.81,4.45,10.09,6.86c-0.05,0.07-0.1,0.15-0.15,0.22
		c-3.36-2.29-6.72-4.58-10.09-6.87C419.92,215.37,419.97,215.3,420.02,215.23z M408.64,212.47c1.79-0.01,3.58-0.03,5.37-0.04
		c0,0.07,0,0.15,0,0.22c-1.8,0.04-3.59,0.09-5.39,0.13C408.63,212.69,408.64,212.58,408.64,212.47z M339.78,223.99
		c-2.05-2.22-3.65-4.78-5.5-7.15c0.06-0.06,0.11-0.12,0.17-0.17c1.85,2.39,3.69,4.78,5.54,7.16L339.78,223.99z M333.58,213.84
		c1.39-1.79,3.07-3.29,4.75-4.79c1.12-1,2.18-2.05,3.28-3.06c0.86-0.79,1.75-1.53,2.59-2.33c0.65-0.62,1.24-1.3,1.87-1.94
		c0.19-0.2,0.43-0.35,0.67-0.48c-1.89,2.61-10.23,11.21-13.74,13.42C333.2,214.39,333.38,214.1,333.58,213.84z"/>
	<path class="st0" d="M322.53,143.39c0.16-0.41,0.31-0.84,0.49-1.24c0.59-1.26,1.2-2.52,1.8-3.78c1.97-4.12,3.92-8.25,5.9-12.36
		c3.71-7.68,7.44-15.35,11.14-23.04c0.64-1.32,1.12-2.72,1.7-4.07c0.11-0.24,0.32-0.52,0.55-0.61c0.14-0.05,0.48,0.18,0.6,0.37
		c1.05,1.69,2.57,2.96,3.91,4.38c3.55,3.76,7.4,7.23,10.68,11.24c1.02,1.25,2.25,2.34,3.32,3.55c1.86,2.12,3.71,4.27,5.5,6.45
		c2.23,2.71,4.38,5.48,6.59,8.19c0.45,0.55,1.03,0.99,1.55,1.48c0.76,0.71,0.76,0.83,0.22,1.71c-1.74,2.78-3.33,5.64-4.68,8.64
		c-0.89,1.98-2.11,3.82-3.18,5.73c-0.93,1.67-1.85,3.34-2.79,5.01c-0.83,1.47-1.64,2.95-2.51,4.39c-1.3,2.16-2.67,4.26-3.95,6.43
		c-1.3,2.23-2.64,4.45-3.36,6.95c-0.25,0.88-0.78,1.13-1.62,1.27c-1.25,0.21-2.47,0.59-3.7,0.9c-0.73,0.19-1.45,0.4-2.17,0.6
		c-0.18,0.05-0.38,0.04-0.55,0.11c-1.76,0.76-3.65,1.07-5.47,1.62c-1.03,0.32-2.02,0.79-3.05,1.12c-1.54,0.49-3.12,0.88-4.66,1.36
		c-1,0.31-1.98,0.73-2.98,1.06c-0.42,0.14-0.86,0.29-1.3,0.28c-2.37-0.02-4.75-0.08-7.12-0.14c-0.85-0.02-1.71-0.04-2.56-0.12
		c-0.27-0.03-0.58-0.19-0.76-0.39c-1.48-1.63-3.23-2.92-5.04-4.16c-1.65-1.13-3.24-2.34-4.86-3.5c-2.45-1.76-4.9-3.52-7.36-5.27
		c-2.61-1.86-5.17-3.77-7.68-5.77c-0.64-0.51-1.39-0.88-2.18-1.37c0.07-2,0.14-4.08,0.2-6.16c0.02-0.75,0.02-1.51,0-2.26
		c-0.08-3.09-0.16-6.18-0.26-9.26c-0.05-1.73-0.15-3.46-0.19-5.19c-0.03-1.77-0.01-3.54-0.01-5.31c0-0.67,0.01-1.34,0-2.01
		c-0.01-0.57,0.33-0.9,0.78-1.16c2.21-1.29,4.45-2.55,6.62-3.89c2.63-1.62,5.2-3.34,7.82-4.98c1.82-1.14,3.68-2.23,5.54-3.3
		c5.43-3.13,10.67-6.57,15.93-9.97c3.39-2.19,6.86-4.25,10.29-6.38c0.64-0.4,1.26-0.82,1.91-1.21c0.23-0.14,0.51-0.19,1.01-0.37
		c-0.22,0.51-0.32,0.78-0.45,1.03c-0.98,1.91-2.01,3.79-2.94,5.72c-1.69,3.49-3.3,7.02-4.99,10.52c-1.23,2.54-2.56,5.02-3.8,7.55
		c-1.15,2.33-2.32,4.66-3.33,7.05c-0.99,2.36-1.79,4.8-2.69,7.2c-0.53,1.41-1.13,2.8-1.68,4.2c-0.13,0.34-0.21,0.7-0.31,1.05
		C322.46,143.35,322.5,143.37,322.53,143.39z M322.92,180.06c0.07,0.02,0.14,0.03,0.21,0.05c0.16-0.55,0.42-1.09,0.45-1.65
		c0.12-2.56,0.19-5.12,0.24-7.68c0.04-2.15,0.01-4.3,0.03-6.44c0.01-2.26,0.18-4.53,0.03-6.78c-0.25-3.61-0.7-7.2-1.07-10.8
		c-0.01-0.11,0-0.25-0.06-0.33c-0.1-0.14-0.27-0.36-0.36-0.34c-0.19,0.04-0.46,0.19-0.49,0.34c-0.08,0.36-0.08,0.75-0.05,1.12
		c0.12,1.81,0.25,3.61,0.37,5.42c0.07,1.01,0.18,2.02,0.19,3.03c0.02,2.52-0.05,5.05-0.01,7.57c0.04,2.67,0.16,5.35,0.25,8.02
		C322.73,174.42,322.83,177.24,322.92,180.06z M309.98,138.1c1.35,1.38,9.82,6.57,11.08,6.86c-0.29-0.92-1.01-1.44-1.72-1.88
		c-1.9-1.2-3.84-2.35-5.79-3.47C312.43,138.96,311.29,138.31,309.98,138.1z M362,148.09c-3.75,3.5-7.24,7.23-10.43,11.24
		C355.21,155.75,358.74,152.04,362,148.09z M335.68,152.69c0.04-0.07,0.08-0.15,0.12-0.22c-1.9-1.29-3.79-2.59-5.69-3.87
		c-1.91-1.29-3.73-2.72-5.78-3.79C328.14,147.39,331.66,150.4,335.68,152.69z"/>
	<path class="st0" d="M513.74,156.81c-0.5-0.35-1.02-0.6-1.38-1.01c-0.95-1.06-2.21-1.54-3.48-2c-3.58-1.28-7.25-2.29-10.75-3.8
		c-1.52-0.65-3.13-1.08-4.68-1.65c-1.27-0.46-2.52-0.98-3.78-1.48c-3.43-1.36-6.86-2.74-10.3-4.07c-3.55-1.37-7.12-2.71-10.69-4.02
		c-2.76-1.01-5.54-1.97-8.31-2.95c-0.32-0.11-0.62-0.27-0.94-0.38c-2.75-0.98-5.5-1.96-8.25-2.92c-0.47-0.16-0.78-0.42-0.97-0.87
		c-0.62-1.42-1.26-2.82-1.88-4.24c-0.74-1.69-1.48-3.39-2.18-5.1c-1.54-3.77-3.08-7.54-4.59-11.33c-0.81-2.03-1.59-4.08-2.27-6.15
		c-1.04-3.15-2-6.32-2.98-9.49c-0.52-1.69-1.03-3.39-1.53-5.09c-0.11-0.38-0.21-0.78-0.36-1.36c0.57,0.16,0.96,0.26,1.34,0.38
		c2.42,0.78,4.85,0.55,7.07-0.5c3.75-1.76,7.41-3.75,11.08-5.68c2.14-1.12,4.24-2.31,6.36-3.47c0.3-0.16,0.6-0.32,0.91-0.46
		c0.99-0.46,1.01-0.47,1.7,0.35c3.2,3.77,6.21,7.7,9.13,11.7c5.03,6.89,10.11,13.75,15.25,20.57c2.95,3.92,5.97,7.8,9.11,11.57
		c2.66,3.19,5.54,6.19,8.31,9.28c0.29,0.33,0.55,0.72,0.72,1.12c1.21,2.85,2.08,5.81,3.02,8.75c0.8,2.51,1.76,4.96,2.64,7.44
		c0.13,0.35,0.22,0.72,0.36,1.07C512.14,152.93,512.91,154.8,513.74,156.81z"/>
	<path class="st0" d="M405.05,297.05c0.43-0.03,0.76-0.08,1.08-0.06c3.61,0.2,7.2,0.63,10.8,1.05c1.38,0.16,2.78,0.16,4.16,0.21
		c2.78,0.1,5.57,0.24,8.36,0.27c3.09,0.04,6.18,0.03,9.27-0.06c3.73-0.11,7.46-0.31,11.19-0.52c2.83-0.16,5.65-0.36,8.47-0.6
		c3.95-0.33,7.89-0.71,11.84-1.09c2.85-0.27,5.7-0.6,8.55-0.85c1.87-0.17,3.75-0.26,5.62-0.37c0.33-0.02,0.72-0.02,0.99,0.14
		c2.29,1.3,4.84,2.08,6.99,3.68c1.02,0.76,2.23,1.25,3.37,1.83c2.11,1.08,4.21,2.2,6.36,3.21c1.57,0.74,3.06,1.64,4.65,2.34
		c0.65,0.28,1.31,0.54,1.99,0.74c1.42,0.41,2.44,1.57,3.85,1.98c1.34,0.39,2.53,1.11,3.79,1.66c0.89,0.39,1.86,0.57,2.78,0.92
		c1.03,0.38,2.02,0.87,3.05,1.26c1.19,0.45,2.42,0.81,3.61,1.25c0.91,0.33,1.8,0.72,2.89,1.17c-0.41,0.18-0.62,0.31-0.85,0.37
		c-4.76,1.19-9.52,2.39-14.29,3.55c-9.98,2.42-19.96,4.83-29.94,7.24c-1.28,0.31-2.56,0.64-3.85,0.94
		c-1.23,0.28-2.36,0.77-3.37,1.55c-0.38,0.29-0.82,0.52-1.26,0.8c-0.85-0.8-1.39-1.74-2.01-2.63c-0.71-1.02-1.51-1.97-2.27-2.95
		c-0.14-0.18-0.29-0.35-0.39-0.54c-0.91-1.86-2.35-3.31-3.67-4.85c-1.47-1.71-2.81-3.54-4.57-4.99c-0.13-0.11-0.18-0.31-0.33-0.58
		c0.65-0.33,1.22-0.67,1.83-0.94c2.41-1.08,4.81-2.16,7.24-3.2c0.74-0.31,1.35-0.63,1.3-1.56c-0.01-0.17,0.11-0.35,0.19-0.57
		c-0.57-0.45-1.13-0.7-1.87-0.52c-1.9,0.46-3.81,0.88-5.72,1.33c-0.88,0.21-1.77,0.4-2.62,0.67c-1.86,0.6-3.7,1.26-5.56,1.88
		c-2.45,0.81-4.91,1.57-7.35,2.4c-3.81,1.31-7.61,2.65-11.41,3.99c-2.12,0.75-4.26,1.44-6.33,2.31c-2.15,0.91-4.24,1.95-6.31,3.03
		c-1.7,0.89-3.33,1.9-4.99,2.87c-0.32,0.19-0.64,0.4-0.93,0.63c-0.78,0.61-1.12,0.51-1.46-0.45c-0.18-0.5-0.34-1-0.54-1.49
		c-0.95-2.26-1.87-4.53-2.88-6.76c-1.77-3.91-3.55-7.83-5.43-11.69c-1.19-2.44-2.57-4.78-3.84-7.17
		C405.14,297.68,405.14,297.42,405.05,297.05z"/>
	<path class="st0" d="M405.3,138.97c0.17,1.15,0.83,2.05,1.43,3.01c0.48,0.76,0.82,1.6,1.24,2.4c2.27,4.31,4.53,8.61,6.81,12.91
		c0.43,0.81,0.42,1.09-0.1,1.75c-2.34,2.96-4.64,5.94-7.02,8.86c-1.14,1.4-2.45,2.67-3.65,4.01c-0.58,0.65-1.09,1.35-1.65,2.01
		c-0.71,0.82-1.37,1.66-2.22,2.39c-1.05,0.89-1.89,2.03-2.72,3.14c-0.36,0.48-0.71,0.74-1.29,0.72c-0.15-0.01-0.3,0.01-0.45,0
		c-2.06-0.15-4.11-0.31-6.17-0.44c-0.97-0.06-1.96-0.08-2.93-0.05c-3.09,0.08-6.18,0.2-9.28,0.28c-2.38,0.07-4.75,0.09-7.13,0.17
		c-1.24,0.04-2.48,0.19-3.72,0.25c-2.67,0.12-5.34,0.22-8.02,0.33c-0.98,0.04-0.93,0.01-1.21-0.9c-0.26-0.82-0.03-1.39,0.48-2.02
		c0.9-1.11,1.69-2.31,2.54-3.46c0.97-1.3,2.07-2.52,2.94-3.87c2.04-3.15,4.27-6.18,5.88-9.6c0.96-2.05,2.09-4.02,3.1-6.04
		c0.96-1.92,1.87-3.87,2.78-5.82c0.27-0.58,0.48-1.19,0.71-1.78c1.65-4.25,3.31-8.5,4.95-12.76c0.24-0.63,0.39-1.3,0.57-1.95
		c0.25-0.86,0.7-1.12,1.39-0.62c1.12,0.8,2.44,0.95,3.68,1.37c1.25,0.42,2.51,0.79,3.72,1.3c3.79,1.6,7.62,3.06,11.53,4.36
		c1.16,0.39,2.26,0.5,3.41,0.07C405,138.93,405.12,138.97,405.3,138.97z"/>
	<path class="st0" d="M520.15,243.29c-0.69,0.62-1.06,0.03-1.51-0.19c-0.58,0.35-1.13,0.73-1.72,1.04
		c-0.35,0.19-0.74,0.32-1.13,0.39c-0.44,0.08-0.92,0.01-1.2,0.47c-1.05-0.12-1.68,0.86-2.68,1c-0.84,0.12-1.68,0.45-2.43,0.85
		c-0.84,0.43-1.73,0.5-2.61,0.64c-1.25,0.19-2.33,0.62-3.24,1.55c-0.57,0.59-1.29,1.01-2.24,0.68c-0.55-0.19-1.15-0.23-1.76,0.02
		c-0.24,0.1-0.67-0.02-0.9-0.2c-0.42-0.31-0.75-0.73-1.11-1.12c-0.88-0.93-1.76-1.84-2.62-2.78c-0.71-0.78-1.33-1.65-2.09-2.38
		c-1.99-1.94-4.1-3.76-6.04-5.75c-1.25-1.29-2.74-2.21-4.15-3.27c-1.37-1.02-2.79-2.02-3.67-3.6c-0.4-0.72-1.14-1.24-1.67-1.9
		c-0.26-0.31-0.47-0.7-0.58-1.08c-0.22-0.76,0.28-1.25,1.06-1.28c0.82-0.02,1.63-0.19,2.44-0.3c0.75-0.11,1.49-0.25,2.23-0.34
		c0.95-0.13,1.21-0.61,0.75-1.45c-0.05-0.1-0.15-0.17-0.21-0.27c-0.04-0.06-0.05-0.14-0.09-0.27c0.35-0.23,0.71-0.48,1.2-0.81
		c0.65,0.44,1.3,0.93,1.99,1.35c0.91,0.57,1.86,1.07,2.78,1.63c0.77,0.47,1.49,1.02,2.26,1.49c1.61,0.97,3.28,1.83,4.83,2.88
		c0.85,0.57,1.65,1.16,2.64,1.46c0.34,0.1,0.69,0.35,0.93,0.63c0.29,0.34,0.58,0.56,1.02,0.6c0.11,0.01,0.25,0.06,0.3,0.14
		c0.5,0.7,1.24,0.89,2.01,1.18c1,0.37,1.88,1.07,2.84,1.57c1.83,0.95,3.73,1.78,5.5,2.82c0.75,0.44,1.46,0.97,2.25,1.36
		c0.56,0.28,1.34,0.34,1.67,0.77c0.46,0.6,1.07,0.53,1.58,0.81c0.58,0.33,1.26,0.23,1.79,0.58
		C519.1,242.54,519.58,242.89,520.15,243.29z"/>
</g>
</svg>
